# MagicaVoxel @ Ephtracy

# group
o 

# material
mtllib Creep Stone.mtl
usemtl palette

# normals
vn -1 0 0
vn 1 0 0
vn 0 0 1
vn 0 0 -1
vn 0 -1 0
vn 0 1 0

# texcoords
vt 0.236328 0.5
vt 0.310547 0.5
vt 0.447266 0.5
vt 0.587891 0.5

# verts
v -0.5 0 0.5
v -0.5 0 0.1
v -0.5 0.1 0.5
v -0.5 0.1 0.4
v -0.5 0.1 0.2
v -0.5 0.1 0.1
v -0.5 0.1 -0.1
v -0.5 0.1 -0.2
v -0.5 0.2 0.4
v -0.5 0.2 0.2
v -0.5 0.2 -0.1
v -0.5 0.2 -0.2
v -0.5 0.4 -0.1
v -0.5 0.4 -0.2
v -0.5 0.5 -0.1
v -0.5 0.5 -0.2
v -0.4 0 -0.1
v -0.4 0 -0.2
v -0.4 0.1 0.5
v -0.4 0.1 0.4
v -0.4 0.1 0.2
v -0.4 0.1 0.1
v -0.4 0.1 0
v -0.4 0.1 -0.1
v -0.4 0.1 -0.2
v -0.4 0.1 -0.4
v -0.4 0.2 0.5
v -0.4 0.2 0.4
v -0.4 0.2 0.2
v -0.4 0.2 0.1
v -0.4 0.2 0
v -0.4 0.2 -0.1
v -0.4 0.2 -0.2
v -0.4 0.2 -0.4
v -0.4 0.3 0.4
v -0.4 0.3 0.2
v -0.4 0.4 0
v -0.4 0.4 -0.1
v -0.4 0.4 -0.2
v -0.4 0.4 -0.4
v -0.4 0.5 0
v -0.4 0.5 -0.1
v -0.4 0.5 -0.2
v -0.4 0.5 -0.4
v -0.4 0.6 -0.1
v -0.4 0.6 -0.2
v -0.3 0 0
v -0.3 0 -0.1
v -0.3 0 -0.2
v -0.3 0 -0.4
v -0.3 0.1 0
v -0.3 0.1 -0.1
v -0.3 0.1 -0.2
v -0.3 0.1 -0.4
v -0.3 0.1 -0.5
v -0.3 0.2 -0.4
v -0.3 0.2 -0.5
v -0.3 0.4 -0.4
v -0.3 0.4 -0.5
v -0.3 0.5 -0.2
v -0.3 0.5 -0.4
v -0.3 0.5 -0.5
v -0.3 0.6 -0.2
v -0.3 0.6 -0.4
v -0.2 0 0.1
v -0.2 0 0
v -0.2 0 -0.4
v -0.2 0 -0.5
v -0.2 0.1 0.1
v -0.2 0.1 -0.4
v -0.2 0.1 -0.5
v -0.2 0.2 0.1
v -0.2 0.2 0
v -0.2 0.4 0.1
v -0.2 0.4 0
v -0.2 0.5 0.1
v -0.2 0.5 0
v -0.2 0.5 -0.1
v -0.2 0.5 -0.4
v -0.2 0.5 -0.5
v -0.2 0.6 0
v -0.2 0.6 -0.1
v -0.2 0.6 -0.4
v -0.2 0.6 -0.5
v -0.2 0.7 -0.1
v -0.2 0.7 -0.4
v -0.1 0.5 0.1
v -0.1 0.5 0
v -0.1 0.6 0.1
v -0.1 0.6 0
v -0.1 0.6 -0.1
v -0.1 0.7 0
v -0.1 0.7 -0.1
v 0 0.6 0.1
v 0 0.6 0
v 0 0.7 0.1
v 0 0.7 0
v 0 0.7 -0.3
v 0 0.8 0
v 0 0.8 -0.3
v 0.1 0.1 0.2
v 0.1 0.1 0.1
v 0.1 0.2 0.2
v 0.1 0.2 0.1
v 0.1 0.4 0.2
v 0.1 0.4 0.1
v 0.1 0.7 0.2
v 0.1 0.7 0.1
v 0.1 0.7 0
v 0.1 0.8 0.1
v 0.1 0.8 0
v 0.1 0.8 -0.2
v 0.1 0.9 0
v 0.1 0.9 -0.2
v 0.2 0.1 0.3
v 0.2 0.1 0.2
v 0.2 0.2 0.3
v 0.2 0.2 0.2
v 0.2 0.4 0.3
v 0.2 0.4 0.2
v 0.2 0.6 0.3
v 0.2 0.6 0.2
v 0.2 0.8 0.1
v 0.2 0.8 0
v 0.2 0.9 0.1
v 0.2 0.9 0
v -0.1 0.2 0.4
v -0.1 0.2 0.2
v -0.1 0.3 0.4
v -0.1 0.3 0.2
v 0 0.1 0.5
v 0 0.1 0.4
v 0 0.1 0.2
v 0 0.1 0.1
v 0 0.2 0.5
v 0 0.2 0.4
v 0 0.2 0.2
v 0 0.2 0.1
v 0.1 0 0.5
v 0.1 0 0.4
v 0.1 0.1 0.5
v 0.1 0.1 0.4
v 0.1 0.1 0.2
v 0.1 0.2 0.4
v 0.1 0.2 0.2
v 0.1 0.5 -0.4
v 0.1 0.5 -0.5
v 0.1 0.6 -0.4
v 0.1 0.6 -0.5
v 0.2 0 0.4
v 0.2 0 0.3
v 0.2 0 -0.4
v 0.2 0 -0.5
v 0.2 0.1 0.4
v 0.2 0.1 0.3
v 0.2 0.1 -0.4
v 0.2 0.1 -0.5
v 0.2 0.6 -0.3
v 0.2 0.6 -0.4
v 0.2 0.7 -0.2
v 0.2 0.7 -0.3
v 0.2 0.7 -0.4
v 0.2 0.8 -0.1
v 0.2 0.8 -0.2
v 0.2 0.8 -0.3
v 0.2 0.9 -0.1
v 0.2 0.9 -0.2
v 0.3 0 0.3
v 0.3 0 0.2
v 0.3 0 -0.3
v 0.3 0 -0.4
v 0.3 0.1 0.3
v 0.3 0.1 0.2
v 0.3 0.1 -0.3
v 0.3 0.1 -0.4
v 0.3 0.1 -0.5
v 0.3 0.2 -0.4
v 0.3 0.2 -0.5
v 0.3 0.4 -0.4
v 0.3 0.4 -0.5
v 0.3 0.5 -0.4
v 0.3 0.5 -0.5
v 0.3 0.8 0.1
v 0.3 0.8 -0.1
v 0.3 0.9 0.1
v 0.3 0.9 -0.1
v 0.4 0 0.2
v 0.4 0 0.1
v 0.4 0 -0.2
v 0.4 0 -0.3
v 0.4 0.1 0.3
v 0.4 0.1 0.2
v 0.4 0.1 0.1
v 0.4 0.1 -0.2
v 0.4 0.1 -0.3
v 0.4 0.1 -0.4
v 0.4 0.2 0.3
v 0.4 0.2 0.2
v 0.4 0.2 -0.3
v 0.4 0.2 -0.4
v 0.4 0.4 0.3
v 0.4 0.4 0.2
v 0.4 0.4 -0.3
v 0.4 0.4 -0.4
v 0.4 0.6 0.3
v 0.4 0.6 0.2
v 0.4 0.6 0.1
v 0.4 0.6 -0.2
v 0.4 0.6 -0.3
v 0.4 0.6 -0.4
v 0.4 0.7 0.2
v 0.4 0.7 0.1
v 0.4 0.7 -0.2
v 0.4 0.7 -0.3
v 0.4 0.8 0.1
v 0.4 0.8 -0.2
v 0.5 0 0.1
v 0.5 0 -0.2
v 0.5 0.1 0.2
v 0.5 0.1 0.1
v 0.5 0.1 -0.2
v 0.5 0.1 -0.3
v 0.5 0.2 0.2
v 0.5 0.2 -0.3
v 0.5 0.4 0.2
v 0.5 0.4 -0.3
v 0.5 0.6 0.2
v 0.5 0.6 0.1
v 0.5 0.6 -0.2
v 0.5 0.6 -0.3
v 0.5 0.7 0.1
v 0.5 0.7 -0.2
v -0.5 0 0.5
v -0.5 0.1 0.5
v -0.4 0.1 0.5
v -0.4 0.2 0.5
v 0 0.1 0.5
v 0 0.2 0.5
v 0.1 0 0.5
v 0.1 0.1 0.5
v -0.5 0.1 0.4
v -0.5 0.2 0.4
v -0.4 0.1 0.4
v -0.4 0.2 0.4
v -0.4 0.3 0.4
v -0.1 0.2 0.4
v -0.1 0.3 0.4
v 0 0.1 0.4
v 0 0.2 0.4
v 0.1 0 0.4
v 0.1 0.1 0.4
v 0.1 0.2 0.4
v 0.2 0 0.4
v 0.2 0.1 0.4
v 0.2 0 0.3
v 0.2 0.1 0.3
v 0.2 0.2 0.3
v 0.2 0.4 0.3
v 0.2 0.6 0.3
v 0.3 0 0.3
v 0.3 0.1 0.3
v 0.4 0.1 0.3
v 0.4 0.2 0.3
v 0.4 0.4 0.3
v 0.4 0.6 0.3
v 0.1 0.1 0.2
v 0.1 0.2 0.2
v 0.1 0.4 0.2
v 0.1 0.7 0.2
v 0.2 0.1 0.2
v 0.2 0.2 0.2
v 0.2 0.4 0.2
v 0.2 0.6 0.2
v 0.3 0 0.2
v 0.3 0.1 0.2
v 0.4 0 0.2
v 0.4 0.1 0.2
v 0.4 0.2 0.2
v 0.4 0.4 0.2
v 0.4 0.6 0.2
v 0.4 0.7 0.2
v 0.5 0.1 0.2
v 0.5 0.2 0.2
v 0.5 0.4 0.2
v 0.5 0.6 0.2
v -0.2 0.2 0.1
v -0.2 0.4 0.1
v -0.2 0.5 0.1
v -0.1 0.5 0.1
v -0.1 0.6 0.1
v 0 0.1 0.1
v 0 0.2 0.1
v 0 0.6 0.1
v 0 0.7 0.1
v 0.1 0.1 0.1
v 0.1 0.2 0.1
v 0.1 0.4 0.1
v 0.1 0.7 0.1
v 0.1 0.8 0.1
v 0.2 0.8 0.1
v 0.2 0.9 0.1
v 0.3 0.8 0.1
v 0.3 0.9 0.1
v 0.4 0 0.1
v 0.4 0.1 0.1
v 0.4 0.6 0.1
v 0.4 0.7 0.1
v 0.4 0.8 0.1
v 0.5 0 0.1
v 0.5 0.1 0.1
v 0.5 0.6 0.1
v 0.5 0.7 0.1
v -0.4 0.1 0
v -0.4 0.2 0
v -0.4 0.4 0
v -0.4 0.5 0
v -0.3 0 0
v -0.3 0.1 0
v -0.2 0 0
v -0.2 0.2 0
v -0.2 0.4 0
v -0.2 0.5 0
v -0.2 0.6 0
v -0.1 0.5 0
v -0.1 0.6 0
v -0.1 0.7 0
v 0 0.6 0
v 0 0.7 0
v 0 0.8 0
v 0.1 0.7 0
v 0.1 0.8 0
v 0.1 0.9 0
v 0.2 0.8 0
v 0.2 0.9 0
v -0.5 0.1 -0.1
v -0.5 0.2 -0.1
v -0.5 0.4 -0.1
v -0.5 0.5 -0.1
v -0.4 0 -0.1
v -0.4 0.1 -0.1
v -0.4 0.2 -0.1
v -0.4 0.4 -0.1
v -0.4 0.5 -0.1
v -0.4 0.6 -0.1
v -0.3 0 -0.1
v -0.3 0.1 -0.1
v -0.2 0.5 -0.1
v -0.2 0.6 -0.1
v -0.2 0.7 -0.1
v -0.1 0.6 -0.1
v -0.1 0.7 -0.1
v -0.5 0.1 0.2
v -0.5 0.2 0.2
v -0.4 0.1 0.2
v -0.4 0.2 0.2
v -0.4 0.3 0.2
v -0.1 0.2 0.2
v -0.1 0.3 0.2
v 0 0.1 0.2
v 0 0.2 0.2
v 0.1 0.1 0.2
v 0.1 0.2 0.2
v -0.5 0 0.1
v -0.5 0.1 0.1
v -0.4 0.1 0.1
v -0.4 0.2 0.1
v -0.2 0 0.1
v -0.2 0.1 0.1
v -0.2 0.2 0.1
v 0.2 0.8 -0.1
v 0.2 0.9 -0.1
v 0.3 0.8 -0.1
v 0.3 0.9 -0.1
v -0.5 0.1 -0.2
v -0.5 0.2 -0.2
v -0.5 0.4 -0.2
v -0.5 0.5 -0.2
v -0.4 0 -0.2
v -0.4 0.1 -0.2
v -0.4 0.2 -0.2
v -0.4 0.4 -0.2
v -0.4 0.5 -0.2
v -0.4 0.6 -0.2
v -0.3 0 -0.2
v -0.3 0.1 -0.2
v -0.3 0.5 -0.2
v -0.3 0.6 -0.2
v 0.1 0.8 -0.2
v 0.1 0.9 -0.2
v 0.2 0.7 -0.2
v 0.2 0.8 -0.2
v 0.2 0.9 -0.2
v 0.4 0 -0.2
v 0.4 0.1 -0.2
v 0.4 0.6 -0.2
v 0.4 0.7 -0.2
v 0.4 0.8 -0.2
v 0.5 0 -0.2
v 0.5 0.1 -0.2
v 0.5 0.6 -0.2
v 0.5 0.7 -0.2
v 0 0.7 -0.3
v 0 0.8 -0.3
v 0.2 0.6 -0.3
v 0.2 0.7 -0.3
v 0.2 0.8 -0.3
v 0.3 0 -0.3
v 0.3 0.1 -0.3
v 0.4 0 -0.3
v 0.4 0.1 -0.3
v 0.4 0.2 -0.3
v 0.4 0.4 -0.3
v 0.4 0.6 -0.3
v 0.4 0.7 -0.3
v 0.5 0.1 -0.3
v 0.5 0.2 -0.3
v 0.5 0.4 -0.3
v 0.5 0.6 -0.3
v -0.4 0.1 -0.4
v -0.4 0.2 -0.4
v -0.4 0.4 -0.4
v -0.4 0.5 -0.4
v -0.3 0 -0.4
v -0.3 0.1 -0.4
v -0.3 0.2 -0.4
v -0.3 0.4 -0.4
v -0.3 0.5 -0.4
v -0.3 0.6 -0.4
v -0.2 0 -0.4
v -0.2 0.1 -0.4
v -0.2 0.5 -0.4
v -0.2 0.6 -0.4
v -0.2 0.7 -0.4
v 0.1 0.5 -0.4
v 0.1 0.6 -0.4
v 0.2 0 -0.4
v 0.2 0.1 -0.4
v 0.2 0.6 -0.4
v 0.2 0.7 -0.4
v 0.3 0 -0.4
v 0.3 0.1 -0.4
v 0.3 0.2 -0.4
v 0.3 0.4 -0.4
v 0.3 0.5 -0.4
v 0.4 0.1 -0.4
v 0.4 0.2 -0.4
v 0.4 0.4 -0.4
v 0.4 0.6 -0.4
v -0.3 0.1 -0.5
v -0.3 0.2 -0.5
v -0.3 0.4 -0.5
v -0.3 0.5 -0.5
v -0.2 0 -0.5
v -0.2 0.1 -0.5
v -0.2 0.5 -0.5
v -0.2 0.6 -0.5
v 0.1 0.5 -0.5
v 0.1 0.6 -0.5
v 0.2 0 -0.5
v 0.2 0.1 -0.5
v 0.3 0.1 -0.5
v 0.3 0.2 -0.5
v 0.3 0.4 -0.5
v 0.3 0.5 -0.5
v -0.5 0 0.5
v 0.1 0 0.5
v 0.1 0 0.4
v 0.2 0 0.4
v 0.2 0 0.3
v 0.3 0 0.3
v 0.3 0 0.2
v 0.4 0 0.2
v -0.5 0 0.1
v -0.2 0 0.1
v 0.4 0 0.1
v 0.5 0 0.1
v -0.3 0 0
v -0.2 0 0
v -0.4 0 -0.1
v -0.3 0 -0.1
v -0.4 0 -0.2
v -0.3 0 -0.2
v 0.4 0 -0.2
v 0.5 0 -0.2
v 0.3 0 -0.3
v 0.4 0 -0.3
v -0.3 0 -0.4
v -0.2 0 -0.4
v 0.2 0 -0.4
v 0.3 0 -0.4
v -0.2 0 -0.5
v 0.2 0 -0.5
v 0.3 0.1 0.3
v 0.4 0.1 0.3
v 0.3 0.1 0.2
v 0.4 0.1 0.2
v 0.5 0.1 0.2
v 0.4 0.1 0.1
v 0.5 0.1 0.1
v -0.4 0.1 0
v -0.3 0.1 0
v -0.5 0.1 -0.1
v -0.4 0.1 -0.1
v -0.3 0.1 -0.1
v -0.5 0.1 -0.2
v -0.4 0.1 -0.2
v -0.3 0.1 -0.2
v 0.4 0.1 -0.2
v 0.5 0.1 -0.2
v 0.3 0.1 -0.3
v 0.4 0.1 -0.3
v 0.5 0.1 -0.3
v -0.4 0.1 -0.4
v -0.3 0.1 -0.4
v -0.2 0.1 -0.4
v 0.2 0.1 -0.4
v 0.3 0.1 -0.4
v 0.4 0.1 -0.4
v -0.3 0.1 -0.5
v -0.2 0.1 -0.5
v 0.2 0.1 -0.5
v 0.3 0.1 -0.5
v -0.5 0.1 0.5
v -0.4 0.1 0.5
v 0 0.1 0.5
v 0.1 0.1 0.5
v -0.5 0.1 0.4
v -0.4 0.1 0.4
v 0 0.1 0.4
v 0.1 0.1 0.4
v 0.2 0.1 0.4
v 0.2 0.1 0.3
v -0.5 0.1 0.2
v -0.4 0.1 0.2
v 0 0.1 0.2
v 0.1 0.1 0.2
v 0.2 0.1 0.2
v -0.5 0.1 0.1
v -0.4 0.1 0.1
v 0 0.1 0.1
v 0.1 0.1 0.1
v -0.4 0.2 0.5
v 0 0.2 0.5
v -0.5 0.2 0.4
v -0.4 0.2 0.4
v -0.1 0.2 0.4
v 0 0.2 0.4
v 0.1 0.2 0.4
v -0.5 0.2 0.2
v -0.4 0.2 0.2
v -0.1 0.2 0.2
v 0 0.2 0.2
v 0.1 0.2 0.2
v -0.4 0.2 0.1
v -0.2 0.2 0.1
v 0 0.2 0.1
v -0.4 0.3 0.4
v -0.1 0.3 0.4
v -0.4 0.3 0.2
v -0.1 0.3 0.2
v -0.2 0.5 0.1
v -0.1 0.5 0.1
v -0.4 0.5 0
v -0.2 0.5 0
v -0.1 0.5 0
v -0.5 0.5 -0.1
v -0.4 0.5 -0.1
v -0.2 0.5 -0.1
v -0.5 0.5 -0.2
v -0.4 0.5 -0.2
v -0.3 0.5 -0.2
v -0.4 0.5 -0.4
v -0.3 0.5 -0.4
v -0.2 0.5 -0.4
v 0.1 0.5 -0.4
v 0.3 0.5 -0.4
v -0.3 0.5 -0.5
v -0.2 0.5 -0.5
v 0.1 0.5 -0.5
v 0.3 0.5 -0.5
v 0.2 0.6 0.3
v 0.4 0.6 0.3
v 0.2 0.6 0.2
v 0.4 0.6 0.2
v 0.5 0.6 0.2
v -0.1 0.6 0.1
v 0 0.6 0.1
v 0.4 0.6 0.1
v 0.5 0.6 0.1
v -0.2 0.6 0
v -0.1 0.6 0
v 0 0.6 0
v -0.4 0.6 -0.1
v -0.2 0.6 -0.1
v -0.1 0.6 -0.1
v -0.4 0.6 -0.2
v -0.3 0.6 -0.2
v 0.4 0.6 -0.2
v 0.5 0.6 -0.2
v 0.2 0.6 -0.3
v 0.4 0.6 -0.3
v 0.5 0.6 -0.3
v -0.3 0.6 -0.4
v -0.2 0.6 -0.4
v 0.1 0.6 -0.4
v 0.2 0.6 -0.4
v 0.4 0.6 -0.4
v -0.2 0.6 -0.5
v 0.1 0.6 -0.5
v 0.1 0.7 0.2
v 0.4 0.7 0.2
v 0 0.7 0.1
v 0.1 0.7 0.1
v 0.4 0.7 0.1
v 0.5 0.7 0.1
v -0.1 0.7 0
v 0 0.7 0
v 0.1 0.7 0
v -0.2 0.7 -0.1
v -0.1 0.7 -0.1
v 0.2 0.7 -0.2
v 0.4 0.7 -0.2
v 0.5 0.7 -0.2
v 0 0.7 -0.3
v 0.2 0.7 -0.3
v 0.4 0.7 -0.3
v -0.2 0.7 -0.4
v 0.2 0.7 -0.4
v 0.1 0.8 0.1
v 0.2 0.8 0.1
v 0.3 0.8 0.1
v 0.4 0.8 0.1
v 0 0.8 0
v 0.1 0.8 0
v 0.2 0.8 0
v 0.2 0.8 -0.1
v 0.3 0.8 -0.1
v 0.1 0.8 -0.2
v 0.2 0.8 -0.2
v 0.4 0.8 -0.2
v 0 0.8 -0.3
v 0.2 0.8 -0.3
v 0.2 0.9 0.1
v 0.3 0.9 0.1
v 0.1 0.9 0
v 0.2 0.9 0
v 0.2 0.9 -0.1
v 0.3 0.9 -0.1
v 0.1 0.9 -0.2
v 0.2 0.9 -0.2

# faces
f 3/4/1 2/4/1 1/4/1
f 4/4/1 2/4/1 3/4/1
f 5/4/1 2/4/1 4/4/1
f 6/4/1 2/4/1 5/4/1
f 9/3/1 5/3/1 4/3/1
f 10/3/1 5/3/1 9/3/1
f 11/4/1 8/4/1 7/4/1
f 12/4/1 8/4/1 11/4/1
f 13/3/1 12/3/1 11/3/1
f 14/3/1 12/3/1 13/3/1
f 15/2/1 14/2/1 13/2/1
f 16/2/1 14/2/1 15/2/1
f 24/4/1 18/4/1 17/4/1
f 25/4/1 18/4/1 24/4/1
f 27/3/1 20/3/1 19/3/1
f 28/3/1 20/3/1 27/3/1
f 29/3/1 22/3/1 21/3/1
f 30/3/1 22/3/1 29/3/1
f 31/4/1 24/4/1 23/4/1
f 32/4/1 24/4/1 31/4/1
f 33/4/1 26/4/1 25/4/1
f 34/4/1 26/4/1 33/4/1
f 35/2/1 29/2/1 28/2/1
f 36/2/1 29/2/1 35/2/1
f 37/3/1 32/3/1 31/3/1
f 38/3/1 32/3/1 37/3/1
f 39/3/1 34/3/1 33/3/1
f 40/3/1 34/3/1 39/3/1
f 41/2/1 38/2/1 37/2/1
f 42/2/1 38/2/1 41/2/1
f 43/2/1 40/2/1 39/2/1
f 44/2/1 40/2/1 43/2/1
f 45/2/1 43/2/1 42/2/1
f 46/2/1 43/2/1 45/2/1
f 51/4/1 48/4/1 47/4/1
f 52/4/1 48/4/1 51/4/1
f 53/4/1 50/4/1 49/4/1
f 54/4/1 50/4/1 53/4/1
f 56/4/1 55/4/1 54/4/1
f 57/4/1 55/4/1 56/4/1
f 58/3/1 57/3/1 56/3/1
f 59/3/1 57/3/1 58/3/1
f 61/2/1 59/2/1 58/2/1
f 62/2/1 59/2/1 61/2/1
f 63/2/1 61/2/1 60/2/1
f 64/2/1 61/2/1 63/2/1
f 69/4/1 66/4/1 65/4/1
f 70/4/1 68/4/1 67/4/1
f 71/4/1 68/4/1 70/4/1
f 72/4/1 66/4/1 69/4/1
f 73/4/1 66/4/1 72/4/1
f 74/3/1 73/3/1 72/3/1
f 75/3/1 73/3/1 74/3/1
f 76/2/1 75/2/1 74/2/1
f 77/2/1 75/2/1 76/2/1
f 81/2/1 78/2/1 77/2/1
f 82/2/1 78/2/1 81/2/1
f 83/2/1 80/2/1 79/2/1
f 84/2/1 80/2/1 83/2/1
f 85/2/1 83/2/1 82/2/1
f 86/2/1 83/2/1 85/2/1
f 89/2/1 88/2/1 87/2/1
f 90/2/1 88/2/1 89/2/1
f 92/2/1 91/2/1 90/2/1
f 93/2/1 91/2/1 92/2/1
f 96/2/1 95/2/1 94/2/1
f 97/2/1 95/2/1 96/2/1
f 99/1/1 98/1/1 97/1/1
f 100/1/1 98/1/1 99/1/1
f 103/4/1 102/4/1 101/4/1
f 104/4/1 102/4/1 103/4/1
f 105/3/1 104/3/1 103/3/1
f 106/3/1 104/3/1 105/3/1
f 107/2/1 106/2/1 105/2/1
f 108/2/1 106/2/1 107/2/1
f 110/1/1 109/1/1 108/1/1
f 111/1/1 109/1/1 110/1/1
f 113/1/1 112/1/1 111/1/1
f 114/1/1 112/1/1 113/1/1
f 117/4/1 116/4/1 115/4/1
f 118/4/1 116/4/1 117/4/1
f 119/3/1 118/3/1 117/3/1
f 120/3/1 118/3/1 119/3/1
f 121/2/1 120/2/1 119/2/1
f 122/2/1 120/2/1 121/2/1
f 125/1/1 124/1/1 123/1/1
f 126/1/1 124/1/1 125/1/1
f 127/2/2 128/2/2 129/2/2
f 129/2/2 128/2/2 130/2/2
f 131/3/2 132/3/2 135/3/2
f 135/3/2 132/3/2 136/3/2
f 133/3/2 134/3/2 137/3/2
f 137/3/2 134/3/2 138/3/2
f 139/4/2 140/4/2 141/4/2
f 141/4/2 140/4/2 142/4/2
f 142/3/2 143/3/2 144/3/2
f 144/3/2 143/3/2 145/3/2
f 146/2/2 147/2/2 148/2/2
f 148/2/2 147/2/2 149/2/2
f 150/4/2 151/4/2 154/4/2
f 154/4/2 151/4/2 155/4/2
f 152/4/2 153/4/2 156/4/2
f 156/4/2 153/4/2 157/4/2
f 158/2/2 159/2/2 161/2/2
f 161/2/2 159/2/2 162/2/2
f 160/1/2 161/1/2 164/1/2
f 164/1/2 161/1/2 165/1/2
f 163/1/2 164/1/2 166/1/2
f 166/1/2 164/1/2 167/1/2
f 168/4/2 169/4/2 172/4/2
f 172/4/2 169/4/2 173/4/2
f 170/4/2 171/4/2 174/4/2
f 174/4/2 171/4/2 175/4/2
f 175/4/2 176/4/2 177/4/2
f 177/4/2 176/4/2 178/4/2
f 177/3/2 178/3/2 179/3/2
f 179/3/2 178/3/2 180/3/2
f 179/2/2 180/2/2 181/2/2
f 181/2/2 180/2/2 182/2/2
f 183/1/2 184/1/2 185/1/2
f 185/1/2 184/1/2 186/1/2
f 187/4/2 188/4/2 192/4/2
f 192/4/2 188/4/2 193/4/2
f 189/4/2 190/4/2 194/4/2
f 194/4/2 190/4/2 195/4/2
f 191/4/2 192/4/2 197/4/2
f 197/4/2 192/4/2 198/4/2
f 195/4/2 196/4/2 199/4/2
f 199/4/2 196/4/2 200/4/2
f 197/3/2 198/3/2 201/3/2
f 201/3/2 198/3/2 202/3/2
f 199/3/2 200/3/2 203/3/2
f 203/3/2 200/3/2 204/3/2
f 201/2/2 202/2/2 205/2/2
f 205/2/2 202/2/2 206/2/2
f 203/2/2 204/2/2 209/2/2
f 209/2/2 204/2/2 210/2/2
f 206/2/2 207/2/2 211/2/2
f 211/2/2 207/2/2 212/2/2
f 208/2/2 209/2/2 213/2/2
f 213/2/2 209/2/2 214/2/2
f 212/1/2 213/1/2 215/1/2
f 215/1/2 213/1/2 216/1/2
f 217/4/2 218/4/2 220/4/2
f 220/4/2 218/4/2 221/4/2
f 219/4/2 220/4/2 223/4/2
f 221/4/2 222/4/2 223/4/2
f 220/4/2 221/4/2 223/4/2
f 223/4/2 222/4/2 224/4/2
f 223/3/2 224/3/2 225/3/2
f 225/3/2 224/3/2 226/3/2
f 225/2/2 226/2/2 227/2/2
f 227/2/2 226/2/2 228/2/2
f 228/2/2 226/2/2 229/2/2
f 229/2/2 226/2/2 230/2/2
f 228/2/2 229/2/2 231/2/2
f 231/2/2 229/2/2 232/2/2
f 235/4/3 234/4/3 233/4/3
f 237/4/3 235/4/3 233/4/3
f 237/3/3 236/3/3 235/3/3
f 238/3/3 236/3/3 237/3/3
f 239/4/3 237/4/3 233/4/3
f 240/4/3 237/4/3 239/4/3
f 243/3/3 242/3/3 241/3/3
f 244/3/3 242/3/3 243/3/3
f 246/2/3 245/2/3 244/2/3
f 247/2/3 245/2/3 246/2/3
f 251/3/3 249/3/3 248/3/3
f 252/3/3 249/3/3 251/3/3
f 253/4/3 251/4/3 250/4/3
f 254/4/3 251/4/3 253/4/3
f 260/4/3 256/4/3 255/4/3
f 260/4/3 257/4/3 256/4/3
f 261/4/3 257/4/3 260/4/3
f 262/4/3 257/4/3 261/4/3
f 263/3/3 258/3/3 257/3/3
f 263/4/3 257/4/3 262/4/3
f 264/2/3 259/2/3 258/2/3
f 264/3/3 258/3/3 263/3/3
f 265/2/3 259/2/3 264/2/3
f 270/4/3 267/4/3 266/4/3
f 271/3/3 268/3/3 267/3/3
f 271/4/3 267/4/3 270/4/3
f 272/2/3 269/2/3 268/2/3
f 272/3/3 268/3/3 271/3/3
f 273/2/3 269/2/3 272/2/3
f 276/4/3 275/4/3 274/4/3
f 277/4/3 275/4/3 276/4/3
f 280/2/3 269/2/3 273/2/3
f 281/2/3 269/2/3 280/2/3
f 282/4/3 278/4/3 277/4/3
f 283/3/3 279/3/3 278/3/3
f 283/4/3 278/4/3 282/4/3
f 284/2/3 280/2/3 279/2/3
f 284/3/3 279/3/3 283/3/3
f 285/2/3 280/2/3 284/2/3
f 289/2/3 288/2/3 287/2/3
f 292/3/3 287/3/3 286/3/3
f 293/2/3 290/2/3 289/2/3
f 295/4/3 292/4/3 291/4/3
f 296/3/3 287/3/3 292/3/3
f 296/4/3 292/4/3 295/4/3
f 297/2/3 294/2/3 293/2/3
f 297/3/3 287/3/3 296/3/3
f 297/2/3 289/2/3 287/2/3
f 297/2/3 293/2/3 289/2/3
f 298/2/3 294/2/3 297/2/3
f 300/1/3 299/1/3 298/1/3
f 302/1/3 300/1/3 298/1/3
f 302/1/3 301/1/3 300/1/3
f 303/1/3 301/1/3 302/1/3
f 307/1/3 302/1/3 298/1/3
f 308/1/3 302/1/3 307/1/3
f 309/4/3 305/4/3 304/4/3
f 310/4/3 305/4/3 309/4/3
f 311/2/3 307/2/3 306/2/3
f 312/2/3 307/2/3 311/2/3
f 318/4/3 314/4/3 313/4/3
f 319/4/3 318/4/3 317/4/3
f 320/3/3 315/3/3 314/3/3
f 320/4/3 318/4/3 319/4/3
f 320/4/3 314/4/3 318/4/3
f 321/2/3 316/2/3 315/2/3
f 321/3/3 315/3/3 320/3/3
f 322/2/3 316/2/3 321/2/3
f 324/2/3 323/2/3 322/2/3
f 325/2/3 323/2/3 324/2/3
f 327/2/3 326/2/3 325/2/3
f 328/2/3 326/2/3 327/2/3
f 330/1/3 329/1/3 328/1/3
f 331/1/3 329/1/3 330/1/3
f 333/1/3 332/1/3 331/1/3
f 334/1/3 332/1/3 333/1/3
f 340/4/3 336/4/3 335/4/3
f 341/3/3 337/3/3 336/3/3
f 341/4/3 336/4/3 340/4/3
f 342/2/3 338/2/3 337/2/3
f 342/3/3 337/3/3 341/3/3
f 343/2/3 338/2/3 342/2/3
f 345/4/3 340/4/3 339/4/3
f 346/4/3 340/4/3 345/4/3
f 347/2/3 344/2/3 343/2/3
f 348/2/3 344/2/3 347/2/3
f 350/2/3 349/2/3 348/2/3
f 351/2/3 349/2/3 350/2/3
f 352/3/4 353/3/4 354/3/4
f 354/3/4 353/3/4 355/3/4
f 355/2/4 356/2/4 357/2/4
f 357/2/4 356/2/4 358/2/4
f 359/3/4 360/3/4 361/3/4
f 361/3/4 360/3/4 362/3/4
f 363/4/4 364/4/4 365/4/4
f 363/4/4 365/4/4 367/4/4
f 365/3/4 366/3/4 368/3/4
f 367/4/4 365/4/4 368/4/4
f 368/3/4 366/3/4 369/3/4
f 370/1/4 371/1/4 372/1/4
f 372/1/4 371/1/4 373/1/4
f 374/4/4 375/4/4 379/4/4
f 375/3/4 376/3/4 380/3/4
f 379/4/4 375/4/4 380/4/4
f 376/2/4 377/2/4 381/2/4
f 380/3/4 376/3/4 381/3/4
f 381/2/4 377/2/4 382/2/4
f 378/4/4 379/4/4 384/4/4
f 384/4/4 379/4/4 385/4/4
f 382/2/4 383/2/4 386/2/4
f 386/2/4 383/2/4 387/2/4
f 388/1/4 389/1/4 391/1/4
f 391/1/4 389/1/4 392/1/4
f 390/1/4 391/1/4 396/1/4
f 396/1/4 391/1/4 397/1/4
f 393/4/4 394/4/4 398/4/4
f 398/4/4 394/4/4 399/4/4
f 395/2/4 396/2/4 400/2/4
f 400/2/4 396/2/4 401/2/4
f 402/1/4 403/1/4 405/1/4
f 405/1/4 403/1/4 406/1/4
f 407/4/4 408/4/4 409/4/4
f 409/4/4 408/4/4 410/4/4
f 404/2/4 405/2/4 413/2/4
f 413/2/4 405/2/4 414/2/4
f 410/4/4 411/4/4 415/4/4
f 411/3/4 412/3/4 416/3/4
f 415/4/4 411/4/4 416/4/4
f 412/2/4 413/2/4 417/2/4
f 416/3/4 412/3/4 417/3/4
f 417/2/4 413/2/4 418/2/4
f 419/4/4 420/4/4 424/4/4
f 420/3/4 421/3/4 425/3/4
f 424/4/4 420/4/4 425/4/4
f 421/2/4 422/2/4 426/2/4
f 425/3/4 421/3/4 426/3/4
f 426/2/4 422/2/4 427/2/4
f 423/4/4 424/4/4 429/4/4
f 429/4/4 424/4/4 430/4/4
f 427/2/4 428/2/4 431/2/4
f 431/2/4 428/2/4 432/2/4
f 432/2/4 433/2/4 435/2/4
f 435/2/4 433/2/4 438/2/4
f 434/2/4 435/2/4 438/2/4
f 438/2/4 433/2/4 439/2/4
f 436/4/4 437/4/4 440/4/4
f 440/4/4 437/4/4 441/4/4
f 434/2/4 438/2/4 444/2/4
f 441/4/4 442/4/4 445/4/4
f 442/3/4 443/3/4 446/3/4
f 445/4/4 442/4/4 446/4/4
f 443/2/4 444/2/4 447/2/4
f 446/3/4 443/3/4 447/3/4
f 444/2/4 438/2/4 448/2/4
f 447/2/4 444/2/4 448/2/4
f 449/4/4 450/4/4 454/4/4
f 451/2/4 452/2/4 455/2/4
f 451/2/4 455/2/4 457/2/4
f 455/2/4 456/2/4 457/2/4
f 457/2/4 456/2/4 458/2/4
f 453/4/4 454/4/4 459/4/4
f 454/4/4 450/4/4 460/4/4
f 459/4/4 454/4/4 460/4/4
f 460/4/4 450/4/4 461/4/4
f 450/3/4 451/3/4 462/3/4
f 461/4/4 450/4/4 462/4/4
f 451/2/4 457/2/4 463/2/4
f 462/3/4 451/3/4 463/3/4
f 463/2/4 457/2/4 464/2/4
f 467/4/5 466/4/5 465/4/5
f 469/4/5 468/4/5 467/4/5
f 471/4/5 470/4/5 469/4/5
f 473/4/5 467/4/5 465/4/5
f 473/4/5 472/4/5 471/4/5
f 473/4/5 471/4/5 469/4/5
f 473/4/5 469/4/5 467/4/5
f 474/4/5 472/4/5 473/4/5
f 475/4/5 472/4/5 474/4/5
f 478/4/5 476/4/5 475/4/5
f 478/4/5 475/4/5 474/4/5
f 480/4/5 478/4/5 477/4/5
f 481/4/5 480/4/5 479/4/5
f 482/4/5 478/4/5 480/4/5
f 482/4/5 480/4/5 481/4/5
f 483/4/5 476/4/5 478/4/5
f 483/4/5 478/4/5 482/4/5
f 484/4/5 476/4/5 483/4/5
f 485/4/5 483/4/5 482/4/5
f 486/4/5 483/4/5 485/4/5
f 487/4/5 485/4/5 482/4/5
f 488/4/5 485/4/5 487/4/5
f 489/4/5 485/4/5 488/4/5
f 490/4/5 485/4/5 489/4/5
f 491/4/5 489/4/5 488/4/5
f 492/4/5 489/4/5 491/4/5
f 495/4/5 494/4/5 493/4/5
f 496/4/5 494/4/5 495/4/5
f 498/4/5 497/4/5 496/4/5
f 499/4/5 497/4/5 498/4/5
f 503/4/5 501/4/5 500/4/5
f 504/4/5 501/4/5 503/4/5
f 505/4/5 503/4/5 502/4/5
f 506/4/5 503/4/5 505/4/5
f 511/4/5 509/4/5 508/4/5
f 512/4/5 509/4/5 511/4/5
f 513/4/5 507/4/5 506/4/5
f 514/4/5 507/4/5 513/4/5
f 517/4/5 511/4/5 510/4/5
f 518/4/5 511/4/5 517/4/5
f 519/4/5 515/4/5 514/4/5
f 520/4/5 515/4/5 519/4/5
f 521/4/5 517/4/5 516/4/5
f 522/4/5 517/4/5 521/4/5
f 523/4/6 524/4/6 527/4/6
f 527/4/6 524/4/6 528/4/6
f 525/4/6 526/4/6 529/4/6
f 529/4/6 526/4/6 530/4/6
f 530/4/6 531/4/6 532/4/6
f 530/4/6 532/4/6 536/4/6
f 536/4/6 532/4/6 537/4/6
f 533/4/6 534/4/6 538/4/6
f 538/4/6 534/4/6 539/4/6
f 535/4/6 536/4/6 540/4/6
f 540/4/6 536/4/6 541/4/6
f 542/3/6 543/3/6 545/3/6
f 545/3/6 543/3/6 546/3/6
f 546/3/6 543/3/6 547/3/6
f 544/3/6 545/3/6 549/3/6
f 549/3/6 545/3/6 550/3/6
f 547/3/6 548/3/6 551/3/6
f 546/3/6 547/3/6 551/3/6
f 551/3/6 548/3/6 552/3/6
f 552/3/6 548/3/6 553/3/6
f 550/3/6 551/3/6 554/3/6
f 551/3/6 552/3/6 554/3/6
f 554/3/6 552/3/6 555/3/6
f 555/3/6 552/3/6 556/3/6
f 557/2/6 558/2/6 559/2/6
f 559/2/6 558/2/6 560/2/6
f 561/2/6 562/2/6 564/2/6
f 564/2/6 562/2/6 565/2/6
f 563/2/6 564/2/6 567/2/6
f 567/2/6 564/2/6 568/2/6
f 566/2/6 567/2/6 569/2/6
f 569/2/6 567/2/6 570/2/6
f 570/2/6 571/2/6 572/2/6
f 572/2/6 571/2/6 573/2/6
f 573/2/6 574/2/6 577/2/6
f 577/2/6 574/2/6 578/2/6
f 575/2/6 576/2/6 579/2/6
f 579/2/6 576/2/6 580/2/6
f 581/2/6 582/2/6 583/2/6
f 583/2/6 582/2/6 584/2/6
f 584/2/6 585/2/6 588/2/6
f 588/2/6 585/2/6 589/2/6
f 586/2/6 587/2/6 591/2/6
f 591/2/6 587/2/6 592/2/6
f 590/2/6 591/2/6 594/2/6
f 594/2/6 591/2/6 595/2/6
f 593/2/6 594/2/6 596/2/6
f 596/2/6 594/2/6 597/2/6
f 598/2/6 599/2/6 601/2/6
f 601/2/6 599/2/6 602/2/6
f 597/2/6 594/2/6 603/2/6
f 603/2/6 594/2/6 604/2/6
f 600/2/6 601/2/6 606/2/6
f 606/2/6 601/2/6 607/2/6
f 604/2/6 605/2/6 608/2/6
f 608/2/6 605/2/6 609/2/6
f 610/2/6 611/2/6 613/2/6
f 613/2/6 611/2/6 614/2/6
f 612/2/6 613/2/6 617/2/6
f 617/2/6 613/2/6 618/2/6
f 616/2/6 617/2/6 620/2/6
f 614/2/6 615/2/6 622/2/6
f 622/2/6 615/2/6 623/2/6
f 620/2/6 617/2/6 624/2/6
f 619/2/6 620/2/6 624/2/6
f 621/2/6 622/2/6 625/2/6
f 625/2/6 622/2/6 626/2/6
f 619/2/6 624/2/6 627/2/6
f 624/2/6 625/2/6 627/2/6
f 627/2/6 625/2/6 628/2/6
f 629/1/6 630/1/6 634/1/6
f 634/1/6 630/1/6 635/1/6
f 631/1/6 632/1/6 637/1/6
f 633/1/6 634/1/6 638/1/6
f 636/1/6 637/1/6 639/1/6
f 637/1/6 632/1/6 640/1/6
f 639/1/6 637/1/6 640/1/6
f 633/1/6 638/1/6 641/1/6
f 638/1/6 639/1/6 641/1/6
f 641/1/6 639/1/6 642/1/6
f 643/1/6 644/1/6 646/1/6
f 646/1/6 644/1/6 647/1/6
f 645/1/6 646/1/6 647/1/6
f 647/1/6 644/1/6 648/1/6
f 645/1/6 647/1/6 649/1/6
f 649/1/6 647/1/6 650/1/6
