# MagicaVoxel @ Ephtracy

# group
o 

# material
mtllib Creep Platform.mtl
usemtl palette

# normals
vn -1 0 0
vn 1 0 0
vn 0 0 1
vn 0 0 -1
vn 0 -1 0
vn 0 1 0

# texcoords
vt 0.279297 0.5
vt 0.302734 0.5

# verts
v -0.5 0 0.5
v -0.5 0 0.3
v -0.5 0 -0.3
v -0.5 0 -0.5
v -0.5 0.8 0.3
v -0.5 0.8 -0.3
v -0.5 1 0.5
v -0.5 1 -0.5
v -0.2 0.8 0.3
v -0.2 0.8 0.2
v -0.2 0.8 0.1
v -0.2 0.8 0
v -0.2 0.8 -0.1
v -0.2 0.8 -0.2
v -0.2 1 0.3
v -0.2 1 0.2
v -0.2 1 0.1
v -0.2 1 0
v -0.2 1 -0.1
v -0.2 1 -0.2
v -0.1 0.8 0.2
v -0.1 0.8 0.1
v -0.1 0.8 0
v -0.1 0.8 -0.1
v -0.1 0.8 -0.2
v -0.1 0.8 -0.3
v -0.1 1 0.2
v -0.1 1 0.1
v -0.1 1 0
v -0.1 1 -0.1
v -0.1 1 -0.2
v -0.1 1 -0.3
v 0 0.8 0.3
v 0 0.8 0.2
v 0 0.8 0.1
v 0 0.8 0
v 0 0.8 -0.1
v 0 0.8 -0.2
v 0 1 0.3
v 0 1 0.2
v 0 1 0.1
v 0 1 0
v 0 1 -0.1
v 0 1 -0.2
v 0.1 0.8 0.2
v 0.1 0.8 0.1
v 0.1 0.8 0
v 0.1 0.8 -0.1
v 0.1 0.8 -0.2
v 0.1 0.8 -0.3
v 0.1 1 0.2
v 0.1 1 0.1
v 0.1 1 0
v 0.1 1 -0.1
v 0.1 1 -0.2
v 0.1 1 -0.3
v 0.2 0.8 0.3
v 0.2 0.8 0.2
v 0.2 0.8 0.1
v 0.2 0.8 0
v 0.2 0.8 -0.1
v 0.2 0.8 -0.2
v 0.2 1 0.3
v 0.2 1 0.2
v 0.2 1 0.1
v 0.2 1 0
v 0.2 1 -0.1
v 0.2 1 -0.2
v 0.3 0 0.5
v 0.3 0 0.3
v 0.3 0 -0.3
v 0.3 0 -0.5
v 0.3 0.8 0.5
v 0.3 0.8 0.3
v 0.3 0.8 0.2
v 0.3 0.8 0.1
v 0.3 0.8 0
v 0.3 0.8 -0.1
v 0.3 0.8 -0.2
v 0.3 0.8 -0.3
v 0.3 0.8 -0.5
v 0.3 1 0.2
v 0.3 1 0.1
v 0.3 1 0
v 0.3 1 -0.1
v 0.3 1 -0.2
v 0.3 1 -0.3
v -0.3 0 0.5
v -0.3 0 0.3
v -0.3 0 -0.3
v -0.3 0 -0.5
v -0.3 0.8 0.5
v -0.3 0.8 0.3
v -0.3 0.8 0.2
v -0.3 0.8 0.1
v -0.3 0.8 0
v -0.3 0.8 -0.1
v -0.3 0.8 -0.2
v -0.3 0.8 -0.3
v -0.3 0.8 -0.5
v -0.3 1 0.3
v -0.3 1 0.2
v -0.3 1 0.1
v -0.3 1 0
v -0.3 1 -0.1
v -0.3 1 -0.2
v -0.2 0.8 0.2
v -0.2 0.8 0.1
v -0.2 0.8 0
v -0.2 0.8 -0.1
v -0.2 0.8 -0.2
v -0.2 0.8 -0.3
v -0.2 1 0.2
v -0.2 1 0.1
v -0.2 1 0
v -0.2 1 -0.1
v -0.2 1 -0.2
v -0.2 1 -0.3
v -0.1 0.8 0.3
v -0.1 0.8 0.2
v -0.1 0.8 0.1
v -0.1 0.8 0
v -0.1 0.8 -0.1
v -0.1 0.8 -0.2
v -0.1 1 0.3
v -0.1 1 0.2
v -0.1 1 0.1
v -0.1 1 0
v -0.1 1 -0.1
v -0.1 1 -0.2
v 0 0.8 0.2
v 0 0.8 0.1
v 0 0.8 0
v 0 0.8 -0.1
v 0 0.8 -0.2
v 0 0.8 -0.3
v 0 1 0.2
v 0 1 0.1
v 0 1 0
v 0 1 -0.1
v 0 1 -0.2
v 0 1 -0.3
v 0.1 0.8 0.3
v 0.1 0.8 0.2
v 0.1 0.8 0.1
v 0.1 0.8 0
v 0.1 0.8 -0.1
v 0.1 0.8 -0.2
v 0.1 1 0.3
v 0.1 1 0.2
v 0.1 1 0.1
v 0.1 1 0
v 0.1 1 -0.1
v 0.1 1 -0.2
v 0.2 0.8 0.2
v 0.2 0.8 0.1
v 0.2 0.8 0
v 0.2 0.8 -0.1
v 0.2 0.8 -0.2
v 0.2 0.8 -0.3
v 0.2 1 0.2
v 0.2 1 0.1
v 0.2 1 0
v 0.2 1 -0.1
v 0.2 1 -0.2
v 0.2 1 -0.3
v 0.5 0 0.5
v 0.5 0 0.3
v 0.5 0 -0.3
v 0.5 0 -0.5
v 0.5 0.8 0.3
v 0.5 0.8 -0.3
v 0.5 1 0.5
v 0.5 1 -0.5
v -0.5 0 0.5
v -0.5 1 0.5
v -0.3 0 0.5
v -0.3 0.8 0.5
v 0.3 0 0.5
v 0.3 0.8 0.5
v 0.5 0 0.5
v 0.5 1 0.5
v -0.3 0.8 0.2
v -0.3 1 0.2
v -0.2 0.8 0.2
v -0.2 1 0.2
v -0.1 0.8 0.2
v -0.1 1 0.2
v 0 0.8 0.2
v 0 1 0.2
v 0.1 0.8 0.2
v 0.1 1 0.2
v 0.2 0.8 0.2
v 0.2 1 0.2
v -0.2 0.8 0.1
v -0.2 1 0.1
v -0.1 0.8 0.1
v -0.1 1 0.1
v 0 0.8 0.1
v 0 1 0.1
v 0.1 0.8 0.1
v 0.1 1 0.1
v 0.2 0.8 0.1
v 0.2 1 0.1
v 0.3 0.8 0.1
v 0.3 1 0.1
v -0.3 0.8 0
v -0.3 1 0
v -0.2 0.8 0
v -0.2 1 0
v -0.1 0.8 0
v -0.1 1 0
v 0 0.8 0
v 0 1 0
v 0.1 0.8 0
v 0.1 1 0
v 0.2 0.8 0
v 0.2 1 0
v -0.2 0.8 -0.1
v -0.2 1 -0.1
v -0.1 0.8 -0.1
v -0.1 1 -0.1
v 0 0.8 -0.1
v 0 1 -0.1
v 0.1 0.8 -0.1
v 0.1 1 -0.1
v 0.2 0.8 -0.1
v 0.2 1 -0.1
v 0.3 0.8 -0.1
v 0.3 1 -0.1
v -0.3 0.8 -0.2
v -0.3 1 -0.2
v -0.2 0.8 -0.2
v -0.2 1 -0.2
v -0.1 0.8 -0.2
v -0.1 1 -0.2
v 0 0.8 -0.2
v 0 1 -0.2
v 0.1 0.8 -0.2
v 0.1 1 -0.2
v 0.2 0.8 -0.2
v 0.2 1 -0.2
v -0.5 0 -0.3
v -0.5 0.8 -0.3
v -0.3 0 -0.3
v -0.3 0.8 -0.3
v -0.2 0.8 -0.3
v -0.2 1 -0.3
v -0.1 0.8 -0.3
v -0.1 1 -0.3
v 0 0.8 -0.3
v 0 1 -0.3
v 0.1 0.8 -0.3
v 0.1 1 -0.3
v 0.2 0.8 -0.3
v 0.2 1 -0.3
v 0.3 0 -0.3
v 0.3 0.8 -0.3
v 0.3 1 -0.3
v 0.5 0 -0.3
v 0.5 0.8 -0.3
v -0.5 0 0.3
v -0.5 0.8 0.3
v -0.3 0 0.3
v -0.3 0.8 0.3
v -0.3 1 0.3
v -0.2 0.8 0.3
v -0.2 1 0.3
v -0.1 0.8 0.3
v -0.1 1 0.3
v 0 0.8 0.3
v 0 1 0.3
v 0.1 0.8 0.3
v 0.1 1 0.3
v 0.2 0.8 0.3
v 0.2 1 0.3
v 0.3 0 0.3
v 0.3 0.8 0.3
v 0.5 0 0.3
v 0.5 0.8 0.3
v -0.2 0.8 0.2
v -0.2 1 0.2
v -0.1 0.8 0.2
v -0.1 1 0.2
v 0 0.8 0.2
v 0 1 0.2
v 0.1 0.8 0.2
v 0.1 1 0.2
v 0.2 0.8 0.2
v 0.2 1 0.2
v 0.3 0.8 0.2
v 0.3 1 0.2
v -0.3 0.8 0.1
v -0.3 1 0.1
v -0.2 0.8 0.1
v -0.2 1 0.1
v -0.1 0.8 0.1
v -0.1 1 0.1
v 0 0.8 0.1
v 0 1 0.1
v 0.1 0.8 0.1
v 0.1 1 0.1
v 0.2 0.8 0.1
v 0.2 1 0.1
v -0.2 0.8 0
v -0.2 1 0
v -0.1 0.8 0
v -0.1 1 0
v 0 0.8 0
v 0 1 0
v 0.1 0.8 0
v 0.1 1 0
v 0.2 0.8 0
v 0.2 1 0
v 0.3 0.8 0
v 0.3 1 0
v -0.3 0.8 -0.1
v -0.3 1 -0.1
v -0.2 0.8 -0.1
v -0.2 1 -0.1
v -0.1 0.8 -0.1
v -0.1 1 -0.1
v 0 0.8 -0.1
v 0 1 -0.1
v 0.1 0.8 -0.1
v 0.1 1 -0.1
v 0.2 0.8 -0.1
v 0.2 1 -0.1
v -0.2 0.8 -0.2
v -0.2 1 -0.2
v -0.1 0.8 -0.2
v -0.1 1 -0.2
v 0 0.8 -0.2
v 0 1 -0.2
v 0.1 0.8 -0.2
v 0.1 1 -0.2
v 0.2 0.8 -0.2
v 0.2 1 -0.2
v 0.3 0.8 -0.2
v 0.3 1 -0.2
v -0.5 0 -0.5
v -0.5 1 -0.5
v -0.3 0 -0.5
v -0.3 0.8 -0.5
v 0.3 0 -0.5
v 0.3 0.8 -0.5
v 0.5 0 -0.5
v 0.5 1 -0.5
v -0.5 0 0.5
v -0.3 0 0.5
v 0.3 0 0.5
v 0.5 0 0.5
v -0.5 0 0.3
v -0.3 0 0.3
v 0.3 0 0.3
v 0.5 0 0.3
v -0.5 0 -0.3
v -0.3 0 -0.3
v 0.3 0 -0.3
v 0.5 0 -0.3
v -0.5 0 -0.5
v -0.3 0 -0.5
v 0.3 0 -0.5
v 0.5 0 -0.5
v -0.3 0.8 0.5
v 0.3 0.8 0.5
v -0.5 0.8 0.3
v -0.3 0.8 0.3
v -0.2 0.8 0.3
v -0.1 0.8 0.3
v 0 0.8 0.3
v 0.1 0.8 0.3
v 0.2 0.8 0.3
v 0.3 0.8 0.3
v 0.5 0.8 0.3
v -0.3 0.8 0.2
v -0.2 0.8 0.2
v -0.1 0.8 0.2
v 0 0.8 0.2
v 0.1 0.8 0.2
v 0.2 0.8 0.2
v 0.3 0.8 0.2
v -0.3 0.8 0.1
v -0.2 0.8 0.1
v -0.1 0.8 0.1
v 0 0.8 0.1
v 0.1 0.8 0.1
v 0.2 0.8 0.1
v 0.3 0.8 0.1
v -0.3 0.8 0
v -0.2 0.8 0
v -0.1 0.8 0
v 0 0.8 0
v 0.1 0.8 0
v 0.2 0.8 0
v 0.3 0.8 0
v -0.3 0.8 -0.1
v -0.2 0.8 -0.1
v -0.1 0.8 -0.1
v 0 0.8 -0.1
v 0.1 0.8 -0.1
v 0.2 0.8 -0.1
v 0.3 0.8 -0.1
v -0.3 0.8 -0.2
v -0.2 0.8 -0.2
v -0.1 0.8 -0.2
v 0 0.8 -0.2
v 0.1 0.8 -0.2
v 0.2 0.8 -0.2
v 0.3 0.8 -0.2
v -0.5 0.8 -0.3
v -0.3 0.8 -0.3
v -0.2 0.8 -0.3
v -0.1 0.8 -0.3
v 0 0.8 -0.3
v 0.1 0.8 -0.3
v 0.2 0.8 -0.3
v 0.3 0.8 -0.3
v 0.5 0.8 -0.3
v -0.3 0.8 -0.5
v 0.3 0.8 -0.5
v -0.5 1 0.5
v 0.5 1 0.5
v -0.3 1 0.3
v -0.2 1 0.3
v -0.1 1 0.3
v 0 1 0.3
v 0.1 1 0.3
v 0.2 1 0.3
v 0.3 1 0.3
v -0.3 1 0.2
v -0.2 1 0.2
v -0.1 1 0.2
v 0 1 0.2
v 0.1 1 0.2
v 0.2 1 0.2
v 0.3 1 0.2
v -0.3 1 0.1
v -0.2 1 0.1
v -0.1 1 0.1
v 0 1 0.1
v 0.1 1 0.1
v 0.2 1 0.1
v 0.3 1 0.1
v -0.3 1 0
v -0.2 1 0
v -0.1 1 0
v 0 1 0
v 0.1 1 0
v 0.2 1 0
v 0.3 1 0
v -0.3 1 -0.1
v -0.2 1 -0.1
v -0.1 1 -0.1
v 0 1 -0.1
v 0.1 1 -0.1
v 0.2 1 -0.1
v 0.3 1 -0.1
v -0.3 1 -0.2
v -0.2 1 -0.2
v -0.1 1 -0.2
v 0 1 -0.2
v 0.1 1 -0.2
v 0.2 1 -0.2
v 0.3 1 -0.2
v -0.3 1 -0.3
v -0.2 1 -0.3
v -0.1 1 -0.3
v 0 1 -0.3
v 0.1 1 -0.3
v 0.2 1 -0.3
v 0.3 1 -0.3
v -0.5 1 -0.5
v 0.5 1 -0.5

# faces
f 5/1/1 2/1/1 1/1/1
f 6/1/1 4/1/1 3/1/1
f 7/1/1 5/1/1 1/1/1
f 7/1/1 6/1/1 5/1/1
f 8/1/1 4/1/1 6/1/1
f 8/1/1 6/1/1 7/1/1
f 15/2/1 10/2/1 9/2/1
f 16/2/1 10/2/1 15/2/1
f 17/2/1 12/2/1 11/2/1
f 18/2/1 12/2/1 17/2/1
f 19/2/1 14/2/1 13/2/1
f 20/2/1 14/2/1 19/2/1
f 27/2/1 22/2/1 21/2/1
f 28/2/1 22/2/1 27/2/1
f 29/2/1 24/2/1 23/2/1
f 30/2/1 24/2/1 29/2/1
f 31/2/1 26/2/1 25/2/1
f 32/2/1 26/2/1 31/2/1
f 39/2/1 34/2/1 33/2/1
f 40/2/1 34/2/1 39/2/1
f 41/2/1 36/2/1 35/2/1
f 42/2/1 36/2/1 41/2/1
f 43/2/1 38/2/1 37/2/1
f 44/2/1 38/2/1 43/2/1
f 51/2/1 46/2/1 45/2/1
f 52/2/1 46/2/1 51/2/1
f 53/2/1 48/2/1 47/2/1
f 54/2/1 48/2/1 53/2/1
f 55/2/1 50/2/1 49/2/1
f 56/2/1 50/2/1 55/2/1
f 63/2/1 58/2/1 57/2/1
f 64/2/1 58/2/1 63/2/1
f 65/2/1 60/2/1 59/2/1
f 66/2/1 60/2/1 65/2/1
f 67/2/1 62/2/1 61/2/1
f 68/2/1 62/2/1 67/2/1
f 73/1/1 70/1/1 69/1/1
f 74/1/1 70/1/1 73/1/1
f 80/1/1 72/1/1 71/1/1
f 81/1/1 72/1/1 80/1/1
f 82/1/1 76/1/1 75/1/1
f 83/1/1 76/1/1 82/1/1
f 84/1/1 78/1/1 77/1/1
f 85/1/1 78/1/1 84/1/1
f 86/1/1 80/1/1 79/1/1
f 87/1/1 80/1/1 86/1/1
f 88/1/2 89/1/2 92/1/2
f 92/1/2 89/1/2 93/1/2
f 90/1/2 91/1/2 99/1/2
f 99/1/2 91/1/2 100/1/2
f 93/1/2 94/1/2 101/1/2
f 101/1/2 94/1/2 102/1/2
f 95/1/2 96/1/2 103/1/2
f 103/1/2 96/1/2 104/1/2
f 97/1/2 98/1/2 105/1/2
f 105/1/2 98/1/2 106/1/2
f 107/2/2 108/2/2 113/2/2
f 113/2/2 108/2/2 114/2/2
f 109/2/2 110/2/2 115/2/2
f 115/2/2 110/2/2 116/2/2
f 111/2/2 112/2/2 117/2/2
f 117/2/2 112/2/2 118/2/2
f 119/2/2 120/2/2 125/2/2
f 125/2/2 120/2/2 126/2/2
f 121/2/2 122/2/2 127/2/2
f 127/2/2 122/2/2 128/2/2
f 123/2/2 124/2/2 129/2/2
f 129/2/2 124/2/2 130/2/2
f 131/2/2 132/2/2 137/2/2
f 137/2/2 132/2/2 138/2/2
f 133/2/2 134/2/2 139/2/2
f 139/2/2 134/2/2 140/2/2
f 135/2/2 136/2/2 141/2/2
f 141/2/2 136/2/2 142/2/2
f 143/2/2 144/2/2 149/2/2
f 149/2/2 144/2/2 150/2/2
f 145/2/2 146/2/2 151/2/2
f 151/2/2 146/2/2 152/2/2
f 147/2/2 148/2/2 153/2/2
f 153/2/2 148/2/2 154/2/2
f 155/2/2 156/2/2 161/2/2
f 161/2/2 156/2/2 162/2/2
f 157/2/2 158/2/2 163/2/2
f 163/2/2 158/2/2 164/2/2
f 159/2/2 160/2/2 165/2/2
f 165/2/2 160/2/2 166/2/2
f 167/1/2 168/1/2 171/1/2
f 169/1/2 170/1/2 172/1/2
f 167/1/2 171/1/2 173/1/2
f 171/1/2 172/1/2 173/1/2
f 172/1/2 170/1/2 174/1/2
f 173/1/2 172/1/2 174/1/2
f 177/1/3 176/1/3 175/1/3
f 178/1/3 176/1/3 177/1/3
f 180/1/3 176/1/3 178/1/3
f 181/1/3 180/1/3 179/1/3
f 182/1/3 176/1/3 180/1/3
f 182/1/3 180/1/3 181/1/3
f 185/2/3 184/2/3 183/2/3
f 186/2/3 184/2/3 185/2/3
f 189/2/3 188/2/3 187/2/3
f 190/2/3 188/2/3 189/2/3
f 193/2/3 192/2/3 191/2/3
f 194/2/3 192/2/3 193/2/3
f 197/2/3 196/2/3 195/2/3
f 198/2/3 196/2/3 197/2/3
f 201/2/3 200/2/3 199/2/3
f 202/2/3 200/2/3 201/2/3
f 205/2/3 204/2/3 203/2/3
f 206/2/3 204/2/3 205/2/3
f 209/2/3 208/2/3 207/2/3
f 210/2/3 208/2/3 209/2/3
f 213/2/3 212/2/3 211/2/3
f 214/2/3 212/2/3 213/2/3
f 217/2/3 216/2/3 215/2/3
f 218/2/3 216/2/3 217/2/3
f 221/2/3 220/2/3 219/2/3
f 222/2/3 220/2/3 221/2/3
f 225/2/3 224/2/3 223/2/3
f 226/2/3 224/2/3 225/2/3
f 229/2/3 228/2/3 227/2/3
f 230/2/3 228/2/3 229/2/3
f 233/2/3 232/2/3 231/2/3
f 234/2/3 232/2/3 233/2/3
f 237/2/3 236/2/3 235/2/3
f 238/2/3 236/2/3 237/2/3
f 241/2/3 240/2/3 239/2/3
f 242/2/3 240/2/3 241/2/3
f 245/1/3 244/1/3 243/1/3
f 246/1/3 244/1/3 245/1/3
f 249/1/3 248/1/3 247/1/3
f 250/1/3 248/1/3 249/1/3
f 253/1/3 252/1/3 251/1/3
f 254/1/3 252/1/3 253/1/3
f 258/1/3 256/1/3 255/1/3
f 259/1/3 256/1/3 258/1/3
f 260/1/3 258/1/3 257/1/3
f 261/1/3 258/1/3 260/1/3
f 262/1/4 263/1/4 264/1/4
f 264/1/4 263/1/4 265/1/4
f 265/1/4 266/1/4 267/1/4
f 267/1/4 266/1/4 268/1/4
f 269/1/4 270/1/4 271/1/4
f 271/1/4 270/1/4 272/1/4
f 273/1/4 274/1/4 275/1/4
f 275/1/4 274/1/4 276/1/4
f 277/1/4 278/1/4 279/1/4
f 279/1/4 278/1/4 280/1/4
f 281/2/4 282/2/4 283/2/4
f 283/2/4 282/2/4 284/2/4
f 285/2/4 286/2/4 287/2/4
f 287/2/4 286/2/4 288/2/4
f 289/2/4 290/2/4 291/2/4
f 291/2/4 290/2/4 292/2/4
f 293/2/4 294/2/4 295/2/4
f 295/2/4 294/2/4 296/2/4
f 297/2/4 298/2/4 299/2/4
f 299/2/4 298/2/4 300/2/4
f 301/2/4 302/2/4 303/2/4
f 303/2/4 302/2/4 304/2/4
f 305/2/4 306/2/4 307/2/4
f 307/2/4 306/2/4 308/2/4
f 309/2/4 310/2/4 311/2/4
f 311/2/4 310/2/4 312/2/4
f 313/2/4 314/2/4 315/2/4
f 315/2/4 314/2/4 316/2/4
f 317/2/4 318/2/4 319/2/4
f 319/2/4 318/2/4 320/2/4
f 321/2/4 322/2/4 323/2/4
f 323/2/4 322/2/4 324/2/4
f 325/2/4 326/2/4 327/2/4
f 327/2/4 326/2/4 328/2/4
f 329/2/4 330/2/4 331/2/4
f 331/2/4 330/2/4 332/2/4
f 333/2/4 334/2/4 335/2/4
f 335/2/4 334/2/4 336/2/4
f 337/2/4 338/2/4 339/2/4
f 339/2/4 338/2/4 340/2/4
f 341/1/4 342/1/4 343/1/4
f 343/1/4 342/1/4 344/1/4
f 344/1/4 342/1/4 346/1/4
f 345/1/4 346/1/4 347/1/4
f 346/1/4 342/1/4 348/1/4
f 347/1/4 346/1/4 348/1/4
f 353/1/5 350/1/5 349/1/5
f 354/1/5 350/1/5 353/1/5
f 355/1/5 352/1/5 351/1/5
f 356/1/5 352/1/5 355/1/5
f 361/1/5 358/1/5 357/1/5
f 362/1/5 358/1/5 361/1/5
f 363/1/5 360/1/5 359/1/5
f 364/1/5 360/1/5 363/1/5
f 368/1/5 366/1/5 365/1/5
f 369/1/5 366/1/5 368/1/5
f 370/1/5 366/1/5 369/1/5
f 371/1/5 366/1/5 370/1/5
f 372/1/5 366/1/5 371/1/5
f 373/1/5 366/1/5 372/1/5
f 374/1/5 366/1/5 373/1/5
f 376/1/5 368/1/5 367/1/5
f 377/2/5 370/2/5 369/2/5
f 378/2/5 370/2/5 377/2/5
f 379/2/5 372/2/5 371/2/5
f 380/2/5 372/2/5 379/2/5
f 381/2/5 374/2/5 373/2/5
f 382/1/5 375/1/5 374/1/5
f 382/2/5 374/2/5 381/2/5
f 383/1/5 376/1/5 367/1/5
f 383/2/5 377/2/5 376/2/5
f 384/2/5 377/2/5 383/2/5
f 385/2/5 379/2/5 378/2/5
f 386/2/5 379/2/5 385/2/5
f 387/2/5 381/2/5 380/2/5
f 388/2/5 381/2/5 387/2/5
f 389/1/5 375/1/5 382/1/5
f 390/1/5 383/1/5 367/1/5
f 391/2/5 385/2/5 384/2/5
f 392/2/5 385/2/5 391/2/5
f 393/2/5 387/2/5 386/2/5
f 394/2/5 387/2/5 393/2/5
f 395/2/5 389/2/5 388/2/5
f 396/1/5 375/1/5 389/1/5
f 396/2/5 389/2/5 395/2/5
f 397/1/5 390/1/5 367/1/5
f 397/2/5 391/2/5 390/2/5
f 398/2/5 391/2/5 397/2/5
f 399/2/5 393/2/5 392/2/5
f 400/2/5 393/2/5 399/2/5
f 401/2/5 395/2/5 394/2/5
f 402/2/5 395/2/5 401/2/5
f 403/1/5 375/1/5 396/1/5
f 404/1/5 397/1/5 367/1/5
f 405/2/5 399/2/5 398/2/5
f 406/2/5 399/2/5 405/2/5
f 407/2/5 401/2/5 400/2/5
f 408/2/5 401/2/5 407/2/5
f 409/2/5 403/2/5 402/2/5
f 410/1/5 375/1/5 403/1/5
f 410/2/5 403/2/5 409/2/5
f 411/1/5 404/1/5 367/1/5
f 412/2/5 405/2/5 404/2/5
f 412/1/5 404/1/5 411/1/5
f 413/2/5 405/2/5 412/2/5
f 414/2/5 407/2/5 406/2/5
f 415/2/5 407/2/5 414/2/5
f 416/2/5 409/2/5 408/2/5
f 417/2/5 409/2/5 416/2/5
f 418/1/5 375/1/5 410/1/5
f 419/1/5 375/1/5 418/1/5
f 420/1/5 417/1/5 416/1/5
f 420/1/5 415/1/5 414/1/5
f 420/1/5 418/1/5 417/1/5
f 420/1/5 413/1/5 412/1/5
f 420/1/5 416/1/5 415/1/5
f 420/1/5 414/1/5 413/1/5
f 421/1/5 418/1/5 420/1/5
f 422/1/6 423/1/6 424/1/6
f 424/1/6 423/1/6 425/1/6
f 425/1/6 423/1/6 426/1/6
f 426/1/6 423/1/6 427/1/6
f 427/1/6 423/1/6 428/1/6
f 428/1/6 423/1/6 429/1/6
f 429/1/6 423/1/6 430/1/6
f 422/1/6 424/1/6 431/1/6
f 425/2/6 426/2/6 432/2/6
f 432/2/6 426/2/6 433/2/6
f 427/2/6 428/2/6 434/2/6
f 434/2/6 428/2/6 435/2/6
f 429/2/6 430/2/6 436/2/6
f 430/1/6 423/1/6 437/1/6
f 436/2/6 430/2/6 437/2/6
f 422/1/6 431/1/6 438/1/6
f 431/2/6 432/2/6 438/2/6
f 438/2/6 432/2/6 439/2/6
f 433/2/6 434/2/6 440/2/6
f 440/2/6 434/2/6 441/2/6
f 435/2/6 436/2/6 442/2/6
f 442/2/6 436/2/6 443/2/6
f 437/1/6 423/1/6 444/1/6
f 422/1/6 438/1/6 445/1/6
f 439/2/6 440/2/6 446/2/6
f 446/2/6 440/2/6 447/2/6
f 441/2/6 442/2/6 448/2/6
f 448/2/6 442/2/6 449/2/6
f 443/2/6 444/2/6 450/2/6
f 444/1/6 423/1/6 451/1/6
f 450/2/6 444/2/6 451/2/6
f 422/1/6 445/1/6 452/1/6
f 445/2/6 446/2/6 452/2/6
f 452/2/6 446/2/6 453/2/6
f 447/2/6 448/2/6 454/2/6
f 454/2/6 448/2/6 455/2/6
f 449/2/6 450/2/6 456/2/6
f 456/2/6 450/2/6 457/2/6
f 451/1/6 423/1/6 458/1/6
f 422/1/6 452/1/6 459/1/6
f 453/2/6 454/2/6 460/2/6
f 460/2/6 454/2/6 461/2/6
f 455/2/6 456/2/6 462/2/6
f 462/2/6 456/2/6 463/2/6
f 457/2/6 458/2/6 464/2/6
f 458/1/6 423/1/6 465/1/6
f 464/2/6 458/2/6 465/2/6
f 422/1/6 459/1/6 466/1/6
f 459/2/6 460/2/6 466/2/6
f 466/2/6 460/2/6 467/2/6
f 461/2/6 462/2/6 468/2/6
f 468/2/6 462/2/6 469/2/6
f 463/2/6 464/2/6 470/2/6
f 470/2/6 464/2/6 471/2/6
f 465/1/6 423/1/6 472/1/6
f 470/1/6 471/1/6 473/1/6
f 471/1/6 472/1/6 473/1/6
f 468/1/6 469/1/6 473/1/6
f 466/1/6 467/1/6 473/1/6
f 469/1/6 470/1/6 473/1/6
f 422/1/6 466/1/6 473/1/6
f 467/1/6 468/1/6 473/1/6
f 472/1/6 423/1/6 474/1/6
f 473/1/6 472/1/6 474/1/6
