# MagicaVoxel @ Ephtracy

# group
o 

# material
mtllib Creep Grass.mtl
usemtl palette

# normals
vn -1 0 0
vn 1 0 0
vn 0 0 1
vn 0 0 -1
vn 0 -1 0
vn 0 1 0

# texcoords
vt 0.533203 0.5
vt 0.537109 0.5
vt 0.583984 0.5
vt 0.599609 0.5
vt 0.603516 0.5
vt 0.607422 0.5
vt 0.630859 0.5

# verts
v -0.5 0 0.5
v -0.5 0 -0.4
v -0.5 0 -0.5
v -0.5 0.1 0.1
v -0.5 0.1 0
v -0.5 0.1 -0.2
v -0.5 0.1 -0.3
v -0.5 0.1 -0.4
v -0.5 0.1 -0.5
v -0.5 0.2 0.4
v -0.5 0.2 0.3
v -0.5 0.2 0.1
v -0.5 0.2 0
v -0.5 0.2 -0.2
v -0.5 0.2 -0.3
v -0.5 0.3 0.4
v -0.5 0.3 0.3
v -0.5 0.3 0.1
v -0.5 0.3 0
v -0.5 0.3 -0.4
v -0.5 0.3 -0.5
v -0.5 0.4 0.5
v -0.5 0.4 0.4
v -0.5 0.4 0.1
v -0.5 0.4 0
v -0.5 0.4 -0.4
v -0.5 0.4 -0.5
v -0.5 0.5 0.5
v -0.5 0.5 0.4
v -0.5 0.5 0.3
v -0.5 0.5 0.2
v -0.5 0.5 0
v -0.5 0.5 -0.1
v -0.5 0.5 -0.2
v -0.5 0.5 -0.3
v -0.5 0.6 0.4
v -0.5 0.6 0.3
v -0.5 0.6 0.2
v -0.5 0.6 0.1
v -0.5 0.6 0
v -0.5 0.6 -0.1
v -0.5 0.6 -0.3
v -0.5 0.6 -0.4
v -0.5 0.7 0.5
v -0.5 0.7 0.4
v -0.5 0.7 0.3
v -0.5 0.7 0.2
v -0.5 0.7 0.1
v -0.5 0.7 0
v -0.5 0.7 -0.1
v -0.5 0.7 -0.2
v -0.5 0.7 -0.3
v -0.5 0.7 -0.4
v -0.5 0.7 -0.5
v -0.5 0.8 0.5
v -0.5 0.8 0.4
v -0.5 0.8 0.3
v -0.5 0.8 0.1
v -0.5 0.8 0
v -0.5 0.8 -0.1
v -0.5 0.8 -0.2
v -0.5 0.9 0.5
v -0.5 0.9 0.4
v -0.5 0.9 0.3
v -0.5 0.9 0.2
v -0.5 0.9 0.1
v -0.5 0.9 -0.3
v -0.5 0.9 -0.4
v -0.5 1 0.5
v -0.5 1 0.2
v -0.5 1 0.1
v -0.5 1 -0.3
v -0.5 1 -0.4
v -0.5 1 -0.5
v 0.5 0 0.5
v 0.5 0 -0.1
v 0.5 0 -0.2
v 0.5 0 -0.5
v 0.5 0.1 0.2
v 0.5 0.1 0.1
v 0.5 0.1 -0.1
v 0.5 0.1 -0.2
v 0.5 0.2 0.2
v 0.5 0.2 0.1
v 0.5 0.2 -0.3
v 0.5 0.2 -0.4
v 0.5 0.3 0.4
v 0.5 0.3 0.3
v 0.5 0.3 0
v 0.5 0.3 -0.1
v 0.5 0.3 -0.3
v 0.5 0.3 -0.4
v 0.5 0.4 0.4
v 0.5 0.4 0.3
v 0.5 0.4 0.2
v 0.5 0.4 0.1
v 0.5 0.4 0
v 0.5 0.4 -0.1
v 0.5 0.4 -0.2
v 0.5 0.4 -0.3
v 0.5 0.5 0.2
v 0.5 0.5 0.1
v 0.5 0.5 -0.2
v 0.5 0.5 -0.3
v 0.5 0.5 -0.4
v 0.5 0.5 -0.5
v 0.5 0.6 0.5
v 0.5 0.6 0.4
v 0.5 0.6 0.2
v 0.5 0.6 0.1
v 0.5 0.6 -0.3
v 0.5 0.6 -0.4
v 0.5 0.6 -0.5
v 0.5 0.7 0.4
v 0.5 0.7 0.3
v 0.5 0.7 0.2
v 0.5 0.7 0.1
v 0.5 0.7 0
v 0.5 0.7 -0.1
v 0.5 0.7 -0.3
v 0.5 0.7 -0.4
v 0.5 0.7 -0.5
v 0.5 0.8 0.4
v 0.5 0.8 0.3
v 0.5 0.8 0.2
v 0.5 0.8 0.1
v 0.5 0.8 0
v 0.5 0.8 -0.1
v 0.5 0.8 -0.3
v 0.5 0.8 -0.4
v 0.5 0.9 0.4
v 0.5 0.9 0.3
v 0.5 0.9 0.2
v 0.5 0.9 0.1
v 0.5 0.9 0
v 0.5 0.9 -0.1
v 0.5 0.9 -0.2
v 0.5 0.9 -0.3
v 0.5 1 0.5
v 0.5 1 0.2
v 0.5 1 0.1
v 0.5 1 -0.2
v 0.5 1 -0.3
v 0.5 1 -0.5
v -0.5 0 0.5
v -0.5 0.4 0.5
v -0.5 0.5 0.5
v -0.5 0.7 0.5
v -0.5 0.8 0.5
v -0.5 0.9 0.5
v -0.5 1 0.5
v -0.4 0 0.5
v -0.4 0.1 0.5
v -0.4 0.4 0.5
v -0.4 0.5 0.5
v -0.4 0.7 0.5
v -0.4 0.8 0.5
v -0.4 0.9 0.5
v -0.4 1 0.5
v -0.3 0 0.5
v -0.3 0.1 0.5
v -0.3 0.2 0.5
v -0.3 0.3 0.5
v -0.3 0.7 0.5
v -0.3 0.8 0.5
v -0.3 0.9 0.5
v -0.3 1 0.5
v -0.2 0.2 0.5
v -0.2 0.3 0.5
v -0.2 0.6 0.5
v -0.2 0.7 0.5
v -0.2 0.8 0.5
v -0.1 0.5 0.5
v -0.1 0.6 0.5
v -0.1 0.7 0.5
v -0.1 0.8 0.5
v 0 0.1 0.5
v 0 0.2 0.5
v 0 0.6 0.5
v 0 0.7 0.5
v 0 0.8 0.5
v 0 0.9 0.5
v 0.1 0.1 0.5
v 0.1 0.2 0.5
v 0.1 0.3 0.5
v 0.1 0.4 0.5
v 0.1 0.5 0.5
v 0.1 0.6 0.5
v 0.1 0.7 0.5
v 0.1 0.8 0.5
v 0.1 0.9 0.5
v 0.2 0.3 0.5
v 0.2 0.4 0.5
v 0.2 0.6 0.5
v 0.2 0.7 0.5
v 0.3 0.1 0.5
v 0.3 0.2 0.5
v 0.3 0.4 0.5
v 0.3 0.5 0.5
v 0.3 0.6 0.5
v 0.3 0.7 0.5
v 0.3 0.8 0.5
v 0.3 0.9 0.5
v 0.4 0.1 0.5
v 0.4 0.2 0.5
v 0.4 0.4 0.5
v 0.4 0.5 0.5
v 0.4 0.6 0.5
v 0.4 0.7 0.5
v 0.4 0.8 0.5
v 0.4 0.9 0.5
v 0.5 0 0.5
v 0.5 0.6 0.5
v 0.5 1 0.5
v -0.5 0 -0.5
v -0.5 0.1 -0.5
v -0.5 0.3 -0.5
v -0.5 0.4 -0.5
v -0.5 0.7 -0.5
v -0.5 1 -0.5
v -0.4 0 -0.5
v -0.4 0.1 -0.5
v -0.4 0.3 -0.5
v -0.4 0.4 -0.5
v -0.4 0.6 -0.5
v -0.4 0.7 -0.5
v -0.4 0.8 -0.5
v -0.4 0.9 -0.5
v -0.3 0.5 -0.5
v -0.3 0.6 -0.5
v -0.3 0.7 -0.5
v -0.3 0.8 -0.5
v -0.3 0.9 -0.5
v -0.3 1 -0.5
v -0.2 0.5 -0.5
v -0.2 0.6 -0.5
v -0.2 0.7 -0.5
v -0.2 0.9 -0.5
v -0.2 1 -0.5
v -0.1 0.4 -0.5
v -0.1 0.5 -0.5
v -0.1 0.6 -0.5
v -0.1 0.7 -0.5
v 0 0.2 -0.5
v 0 0.3 -0.5
v 0 0.4 -0.5
v 0 0.5 -0.5
v 0 0.7 -0.5
v 0 0.8 -0.5
v 0 0.9 -0.5
v 0.1 0.2 -0.5
v 0.1 0.3 -0.5
v 0.1 0.5 -0.5
v 0.1 0.6 -0.5
v 0.1 0.7 -0.5
v 0.1 0.8 -0.5
v 0.1 0.9 -0.5
v 0.2 0.5 -0.5
v 0.2 0.6 -0.5
v 0.2 0.8 -0.5
v 0.2 0.9 -0.5
v 0.3 0.1 -0.5
v 0.3 0.2 -0.5
v 0.3 0.6 -0.5
v 0.3 0.7 -0.5
v 0.3 0.8 -0.5
v 0.4 0.1 -0.5
v 0.4 0.2 -0.5
v 0.4 0.5 -0.5
v 0.4 0.6 -0.5
v 0.4 0.7 -0.5
v 0.4 0.8 -0.5
v 0.5 0 -0.5
v 0.5 0.5 -0.5
v 0.5 0.6 -0.5
v 0.5 0.7 -0.5
v 0.5 1 -0.5
v -0.5 0 0.5
v -0.4 0 0.5
v -0.3 0 0.5
v 0.5 0 0.5
v -0.4 0 0.4
v -0.3 0 0.4
v -0.2 0 0.4
v 0 0 0.4
v 0.1 0 0.4
v -0.3 0 0.3
v -0.2 0 0.3
v 0 0 0.3
v 0.1 0 0.3
v 0.3 0 0.3
v 0.4 0 0.3
v 0.2 0 0.2
v 0.3 0 0.2
v 0.4 0 0.2
v -0.4 0 0.1
v -0.3 0 0.1
v -0.2 0 0.1
v -0.1 0 0.1
v 0 0 0.1
v 0.1 0 0.1
v 0.2 0 0.1
v 0.3 0 0.1
v -0.4 0 0
v -0.3 0 0
v -0.2 0 0
v -0.1 0 0
v 0 0 0
v 0.1 0 0
v 0.4 0 -0.1
v 0.5 0 -0.1
v -0.2 0 -0.2
v -0.1 0 -0.2
v 0 0 -0.2
v 0.1 0 -0.2
v 0.2 0 -0.2
v 0.3 0 -0.2
v 0.4 0 -0.2
v 0.5 0 -0.2
v -0.4 0 -0.3
v -0.3 0 -0.3
v -0.2 0 -0.3
v -0.1 0 -0.3
v 0 0 -0.3
v 0.1 0 -0.3
v 0.2 0 -0.3
v 0.3 0 -0.3
v -0.5 0 -0.4
v -0.4 0 -0.4
v -0.3 0 -0.4
v -0.5 0 -0.5
v -0.4 0 -0.5
v 0.5 0 -0.5
v -0.5 1 0.5
v -0.4 1 0.5
v -0.3 1 0.5
v 0.5 1 0.5
v -0.3 1 0.4
v -0.2 1 0.4
v 0 1 0.4
v 0.1 1 0.4
v 0.3 1 0.4
v 0.4 1 0.4
v -0.4 1 0.3
v -0.3 1 0.3
v -0.2 1 0.3
v -0.1 1 0.3
v 0 1 0.3
v 0.1 1 0.3
v 0.3 1 0.3
v 0.4 1 0.3
v -0.5 1 0.2
v -0.4 1 0.2
v -0.2 1 0.2
v -0.1 1 0.2
v 0.2 1 0.2
v 0.3 1 0.2
v 0.4 1 0.2
v 0.5 1 0.2
v -0.5 1 0.1
v -0.4 1 0.1
v -0.1 1 0.1
v 0 1 0.1
v 0.2 1 0.1
v 0.3 1 0.1
v 0.4 1 0.1
v 0.5 1 0.1
v -0.4 1 0
v -0.3 1 0
v -0.1 1 0
v 0 1 0
v 0.1 1 0
v 0.2 1 0
v 0.3 1 0
v -0.4 1 -0.1
v -0.3 1 -0.1
v -0.2 1 -0.1
v -0.1 1 -0.1
v 0 1 -0.1
v 0.1 1 -0.1
v 0.2 1 -0.1
v 0.3 1 -0.1
v 0.4 1 -0.1
v -0.2 1 -0.2
v -0.1 1 -0.2
v 0.3 1 -0.2
v 0.4 1 -0.2
v 0.5 1 -0.2
v -0.5 1 -0.3
v -0.3 1 -0.3
v -0.2 1 -0.3
v -0.1 1 -0.3
v 0 1 -0.3
v 0.2 1 -0.3
v 0.3 1 -0.3
v 0.4 1 -0.3
v 0.5 1 -0.3
v -0.5 1 -0.4
v -0.3 1 -0.4
v -0.2 1 -0.4
v -0.1 1 -0.4
v 0 1 -0.4
v 0.2 1 -0.4
v 0.3 1 -0.4
v -0.5 1 -0.5
v -0.3 1 -0.5
v -0.2 1 -0.5
v 0.5 1 -0.5

# faces
f 4/2/1 2/2/1 1/2/1
f 5/2/1 2/2/1 4/2/1
f 6/2/1 2/2/1 5/2/1
f 7/2/1 2/2/1 6/2/1
f 8/1/1 3/1/1 2/1/1
f 8/2/1 2/2/1 7/2/1
f 9/1/1 3/1/1 8/1/1
f 10/2/1 4/2/1 1/2/1
f 11/2/1 4/2/1 10/2/1
f 12/1/1 5/1/1 4/1/1
f 12/2/1 4/2/1 11/2/1
f 13/2/1 6/2/1 5/2/1
f 13/1/1 5/1/1 12/1/1
f 14/1/1 7/1/1 6/1/1
f 14/2/1 6/2/1 13/2/1
f 15/2/1 8/2/1 7/2/1
f 15/1/1 7/1/1 14/1/1
f 15/2/1 9/2/1 8/2/1
f 16/1/1 11/1/1 10/1/1
f 16/2/1 10/2/1 1/2/1
f 17/2/1 13/2/1 12/2/1
f 17/1/1 11/1/1 16/1/1
f 17/2/1 12/2/1 11/2/1
f 17/2/1 15/2/1 14/2/1
f 17/2/1 14/2/1 13/2/1
f 18/2/1 15/2/1 17/2/1
f 19/2/1 15/2/1 18/2/1
f 20/2/1 9/2/1 15/2/1
f 20/2/1 15/2/1 19/2/1
f 21/2/1 9/2/1 20/2/1
f 22/2/1 16/2/1 1/2/1
f 22/2/1 17/2/1 16/2/1
f 22/2/1 18/2/1 17/2/1
f 23/2/1 18/2/1 22/2/1
f 24/1/1 19/1/1 18/1/1
f 24/2/1 18/2/1 23/2/1
f 25/2/1 20/2/1 19/2/1
f 25/1/1 19/1/1 24/1/1
f 26/1/1 21/1/1 20/1/1
f 26/2/1 20/2/1 25/2/1
f 27/1/1 21/1/1 26/1/1
f 28/1/1 23/1/1 22/1/1
f 29/2/1 25/2/1 24/2/1
f 29/1/1 23/1/1 28/1/1
f 29/2/1 24/2/1 23/2/1
f 29/2/1 27/2/1 26/2/1
f 29/2/1 26/2/1 25/2/1
f 30/2/1 27/2/1 29/2/1
f 31/2/1 27/2/1 30/2/1
f 32/2/1 27/2/1 31/2/1
f 33/2/1 27/2/1 32/2/1
f 34/2/1 27/2/1 33/2/1
f 35/2/1 27/2/1 34/2/1
f 36/2/1 29/2/1 28/2/1
f 36/2/1 30/2/1 29/2/1
f 37/4/1 31/4/1 30/4/1
f 37/2/1 30/2/1 36/2/1
f 38/2/1 32/2/1 31/2/1
f 38/4/1 31/4/1 37/4/1
f 39/2/1 32/2/1 38/2/1
f 40/1/1 33/1/1 32/1/1
f 40/2/1 32/2/1 39/2/1
f 41/2/1 34/2/1 33/2/1
f 41/1/1 33/1/1 40/1/1
f 42/2/1 27/2/1 35/2/1
f 42/4/1 35/4/1 34/4/1
f 43/2/1 27/2/1 42/2/1
f 44/2/1 36/2/1 28/2/1
f 45/4/1 37/4/1 36/4/1
f 45/2/1 36/2/1 44/2/1
f 46/6/1 38/6/1 37/6/1
f 46/4/1 37/4/1 45/4/1
f 47/4/1 39/4/1 38/4/1
f 47/6/1 38/6/1 46/6/1
f 48/2/1 41/2/1 40/2/1
f 48/4/1 39/4/1 47/4/1
f 48/2/1 40/2/1 39/2/1
f 49/2/1 41/2/1 48/2/1
f 50/2/1 34/2/1 41/2/1
f 50/2/1 41/2/1 49/2/1
f 51/4/1 42/4/1 34/4/1
f 51/2/1 34/2/1 50/2/1
f 52/5/1 43/5/1 42/5/1
f 52/4/1 42/4/1 51/4/1
f 53/2/1 27/2/1 43/2/1
f 53/5/1 43/5/1 52/5/1
f 54/2/1 27/2/1 53/2/1
f 55/4/1 47/4/1 46/4/1
f 55/4/1 46/4/1 45/4/1
f 55/4/1 45/4/1 44/4/1
f 55/4/1 48/4/1 47/4/1
f 56/4/1 48/4/1 55/4/1
f 57/4/1 48/4/1 56/4/1
f 58/5/1 49/5/1 48/5/1
f 58/4/1 48/4/1 57/4/1
f 59/2/1 50/2/1 49/2/1
f 59/5/1 49/5/1 58/5/1
f 60/6/1 51/6/1 50/6/1
f 60/2/1 50/2/1 59/2/1
f 61/4/1 52/4/1 51/4/1
f 61/6/1 51/6/1 60/6/1
f 61/4/1 54/4/1 53/4/1
f 61/4/1 53/4/1 52/4/1
f 62/5/1 56/5/1 55/5/1
f 63/6/1 57/6/1 56/6/1
f 63/5/1 56/5/1 62/5/1
f 64/4/1 60/4/1 59/4/1
f 64/6/1 57/6/1 63/6/1
f 64/4/1 59/4/1 58/4/1
f 64/4/1 61/4/1 60/4/1
f 64/4/1 58/4/1 57/4/1
f 65/4/1 61/4/1 64/4/1
f 66/4/1 61/4/1 65/4/1
f 67/4/1 54/4/1 61/4/1
f 67/4/1 61/4/1 66/4/1
f 68/4/1 54/4/1 67/4/1
f 69/4/1 63/4/1 62/4/1
f 69/4/1 64/4/1 63/4/1
f 69/4/1 65/4/1 64/4/1
f 70/3/1 66/3/1 65/3/1
f 70/4/1 65/4/1 69/4/1
f 71/4/1 67/4/1 66/4/1
f 71/3/1 66/3/1 70/3/1
f 72/6/1 68/6/1 67/6/1
f 72/4/1 67/4/1 71/4/1
f 73/4/1 54/4/1 68/4/1
f 73/6/1 68/6/1 72/6/1
f 74/4/1 54/4/1 73/4/1
f 75/2/2 76/2/2 79/2/2
f 79/2/2 76/2/2 80/2/2
f 76/1/2 77/1/2 81/1/2
f 80/2/2 76/2/2 81/2/2
f 77/2/2 78/2/2 82/2/2
f 81/1/2 77/1/2 82/1/2
f 79/1/2 80/1/2 83/1/2
f 75/2/2 79/2/2 83/2/2
f 80/2/2 81/2/2 84/2/2
f 83/1/2 80/1/2 84/1/2
f 81/2/2 82/2/2 84/2/2
f 82/2/2 78/2/2 85/2/2
f 84/2/2 82/2/2 85/2/2
f 85/2/2 78/2/2 86/2/2
f 75/2/2 83/2/2 87/2/2
f 83/2/2 84/2/2 87/2/2
f 84/2/2 85/2/2 87/2/2
f 87/2/2 85/2/2 88/2/2
f 88/2/2 85/2/2 89/2/2
f 89/2/2 85/2/2 90/2/2
f 85/1/2 86/1/2 91/1/2
f 90/2/2 85/2/2 91/2/2
f 86/2/2 78/2/2 92/2/2
f 91/1/2 86/1/2 92/1/2
f 75/2/2 87/2/2 93/2/2
f 87/1/2 88/1/2 93/1/2
f 88/2/2 89/2/2 94/2/2
f 93/1/2 88/1/2 94/1/2
f 94/2/2 89/2/2 95/2/2
f 95/2/2 89/2/2 96/2/2
f 89/1/2 90/1/2 97/1/2
f 96/2/2 89/2/2 97/2/2
f 90/2/2 91/2/2 98/2/2
f 97/1/2 90/1/2 98/1/2
f 91/2/2 92/2/2 98/2/2
f 98/2/2 92/2/2 99/2/2
f 99/2/2 92/2/2 100/2/2
f 95/1/2 96/1/2 101/1/2
f 94/2/2 95/2/2 101/2/2
f 93/2/2 94/2/2 101/2/2
f 96/2/2 97/2/2 102/2/2
f 101/1/2 96/1/2 102/1/2
f 98/2/2 99/2/2 102/2/2
f 97/2/2 98/2/2 102/2/2
f 99/1/2 100/1/2 103/1/2
f 102/2/2 99/2/2 103/2/2
f 100/2/2 92/2/2 104/2/2
f 103/1/2 100/1/2 104/1/2
f 92/2/2 78/2/2 105/2/2
f 104/2/2 92/2/2 105/2/2
f 105/2/2 78/2/2 106/2/2
f 93/2/2 101/2/2 107/2/2
f 102/2/2 103/2/2 107/2/2
f 103/2/2 104/2/2 107/2/2
f 104/2/2 105/2/2 107/2/2
f 75/2/2 93/2/2 107/2/2
f 101/2/2 102/2/2 107/2/2
f 107/2/2 105/2/2 108/2/2
f 108/2/2 105/2/2 109/2/2
f 109/2/2 105/2/2 110/2/2
f 110/2/2 105/2/2 111/2/2
f 105/4/2 106/4/2 112/4/2
f 111/2/2 105/2/2 112/2/2
f 112/4/2 106/4/2 113/4/2
f 107/4/2 108/4/2 114/4/2
f 108/2/2 109/2/2 114/2/2
f 114/2/2 109/2/2 115/2/2
f 109/4/2 110/4/2 116/4/2
f 115/2/2 109/2/2 116/2/2
f 110/2/2 111/2/2 117/2/2
f 116/4/2 110/4/2 117/4/2
f 117/2/2 111/2/2 118/2/2
f 118/2/2 111/2/2 119/2/2
f 111/4/2 112/4/2 120/4/2
f 119/2/2 111/2/2 120/2/2
f 112/5/2 113/5/2 121/5/2
f 120/4/2 112/4/2 121/4/2
f 121/5/2 113/5/2 122/5/2
f 114/5/2 115/5/2 123/5/2
f 107/4/2 114/4/2 123/4/2
f 115/4/2 116/4/2 124/4/2
f 123/5/2 115/5/2 124/5/2
f 116/6/2 117/6/2 125/6/2
f 124/4/2 116/4/2 125/4/2
f 117/4/2 118/4/2 126/4/2
f 125/6/2 117/6/2 126/6/2
f 118/2/2 119/2/2 127/2/2
f 126/4/2 118/4/2 127/4/2
f 119/4/2 120/4/2 128/4/2
f 127/2/2 119/2/2 128/2/2
f 120/6/2 121/6/2 129/6/2
f 128/4/2 120/4/2 129/4/2
f 121/4/2 122/4/2 130/4/2
f 129/6/2 121/6/2 130/6/2
f 107/4/2 123/4/2 131/4/2
f 123/6/2 124/6/2 131/6/2
f 126/4/2 127/4/2 132/4/2
f 131/6/2 124/6/2 132/6/2
f 125/4/2 126/4/2 132/4/2
f 124/4/2 125/4/2 132/4/2
f 132/4/2 127/4/2 133/4/2
f 133/4/2 127/4/2 134/4/2
f 127/6/2 128/6/2 135/6/2
f 134/4/2 127/4/2 135/4/2
f 128/4/2 129/4/2 136/4/2
f 135/6/2 128/6/2 136/6/2
f 129/4/2 130/4/2 136/4/2
f 136/4/2 130/4/2 137/4/2
f 137/4/2 130/4/2 138/4/2
f 107/4/2 131/4/2 139/4/2
f 132/4/2 133/4/2 139/4/2
f 131/4/2 132/4/2 139/4/2
f 133/3/2 134/3/2 140/3/2
f 139/4/2 133/4/2 140/4/2
f 134/4/2 135/4/2 141/4/2
f 140/3/2 134/3/2 141/3/2
f 136/4/2 137/4/2 141/4/2
f 135/4/2 136/4/2 141/4/2
f 137/5/2 138/5/2 142/5/2
f 141/4/2 137/4/2 142/4/2
f 138/4/2 130/4/2 143/4/2
f 142/5/2 138/5/2 143/5/2
f 130/4/2 122/4/2 144/4/2
f 143/4/2 130/4/2 144/4/2
f 152/2/3 146/2/3 145/2/3
f 153/2/3 146/2/3 152/2/3
f 154/1/3 147/1/3 146/1/3
f 154/2/3 146/2/3 153/2/3
f 155/2/3 148/2/3 147/2/3
f 155/1/3 147/1/3 154/1/3
f 156/4/3 149/4/3 148/4/3
f 156/2/3 148/2/3 155/2/3
f 157/5/3 150/5/3 149/5/3
f 157/4/3 149/4/3 156/4/3
f 158/4/3 151/4/3 150/4/3
f 158/5/3 150/5/3 157/5/3
f 159/4/3 151/4/3 158/4/3
f 160/1/3 153/1/3 152/1/3
f 161/2/3 157/2/3 156/2/3
f 161/1/3 153/1/3 160/1/3
f 161/2/3 154/2/3 153/2/3
f 161/2/3 155/2/3 154/2/3
f 161/2/3 156/2/3 155/2/3
f 162/2/3 157/2/3 161/2/3
f 163/2/3 157/2/3 162/2/3
f 164/2/3 157/2/3 163/2/3
f 165/4/3 158/4/3 157/4/3
f 165/2/3 157/2/3 164/2/3
f 166/6/3 159/6/3 158/6/3
f 166/4/3 158/4/3 165/4/3
f 167/6/3 159/6/3 166/6/3
f 168/2/3 161/2/3 160/2/3
f 168/2/3 162/2/3 161/2/3
f 168/1/3 163/1/3 162/1/3
f 169/2/3 164/2/3 163/2/3
f 169/1/3 163/1/3 168/1/3
f 170/2/3 164/2/3 169/2/3
f 171/4/3 165/4/3 164/4/3
f 171/2/3 164/2/3 170/2/3
f 171/4/3 167/4/3 166/4/3
f 171/4/3 166/4/3 165/4/3
f 172/4/3 167/4/3 171/4/3
f 173/2/3 170/2/3 169/2/3
f 173/2/3 169/2/3 168/2/3
f 174/4/3 171/4/3 170/4/3
f 174/2/3 170/2/3 173/2/3
f 175/6/3 172/6/3 171/6/3
f 175/4/3 171/4/3 174/4/3
f 176/4/3 167/4/3 172/4/3
f 176/6/3 172/6/3 175/6/3
f 177/2/3 168/2/3 160/2/3
f 177/2/3 173/2/3 168/2/3
f 178/2/3 173/2/3 177/2/3
f 179/5/3 175/5/3 174/5/3
f 179/4/3 174/4/3 173/4/3
f 180/4/3 176/4/3 175/4/3
f 180/5/3 175/5/3 179/5/3
f 181/4/3 167/4/3 176/4/3
f 181/4/3 176/4/3 180/4/3
f 182/4/3 167/4/3 181/4/3
f 183/1/3 178/1/3 177/1/3
f 183/2/3 177/2/3 160/2/3
f 184/2/3 173/2/3 178/2/3
f 184/1/3 178/1/3 183/1/3
f 185/2/3 173/2/3 184/2/3
f 186/2/3 173/2/3 185/2/3
f 187/4/3 180/4/3 179/4/3
f 187/2/3 173/2/3 186/2/3
f 187/4/3 179/4/3 173/4/3
f 187/4/3 181/4/3 180/4/3
f 188/4/3 181/4/3 187/4/3
f 189/4/3 181/4/3 188/4/3
f 190/5/3 182/5/3 181/5/3
f 190/4/3 181/4/3 189/4/3
f 191/4/3 167/4/3 182/4/3
f 191/5/3 182/5/3 190/5/3
f 192/1/3 186/1/3 185/1/3
f 192/2/3 185/2/3 184/2/3
f 192/2/3 184/2/3 183/2/3
f 193/2/3 188/2/3 187/2/3
f 193/1/3 186/1/3 192/1/3
f 193/2/3 187/2/3 186/2/3
f 194/6/3 189/6/3 188/6/3
f 194/2/3 188/2/3 193/2/3
f 195/4/3 190/4/3 189/4/3
f 195/6/3 189/6/3 194/6/3
f 195/4/3 191/4/3 190/4/3
f 196/2/3 183/2/3 160/2/3
f 196/2/3 194/2/3 193/2/3
f 196/2/3 192/2/3 183/2/3
f 196/2/3 193/2/3 192/2/3
f 197/2/3 194/2/3 196/2/3
f 198/2/3 194/2/3 197/2/3
f 199/2/3 194/2/3 198/2/3
f 200/4/3 195/4/3 194/4/3
f 200/2/3 194/2/3 199/2/3
f 201/4/3 191/4/3 195/4/3
f 201/4/3 195/4/3 200/4/3
f 202/4/3 191/4/3 201/4/3
f 203/4/3 167/4/3 191/4/3
f 203/4/3 191/4/3 202/4/3
f 204/2/3 196/2/3 160/2/3
f 204/1/3 197/1/3 196/1/3
f 205/2/3 198/2/3 197/2/3
f 205/1/3 197/1/3 204/1/3
f 206/1/3 199/1/3 198/1/3
f 206/2/3 198/2/3 205/2/3
f 207/2/3 200/2/3 199/2/3
f 207/1/3 199/1/3 206/1/3
f 207/2/3 201/2/3 200/2/3
f 208/2/3 201/2/3 207/2/3
f 209/5/3 202/5/3 201/5/3
f 209/2/3 201/2/3 208/2/3
f 210/6/3 203/6/3 202/6/3
f 210/5/3 202/5/3 209/5/3
f 211/4/3 167/4/3 203/4/3
f 211/6/3 203/6/3 210/6/3
f 212/2/3 206/2/3 205/2/3
f 212/2/3 208/2/3 207/2/3
f 212/2/3 205/2/3 204/2/3
f 212/2/3 207/2/3 206/2/3
f 212/2/3 204/2/3 160/2/3
f 213/4/3 211/4/3 210/4/3
f 213/2/3 208/2/3 212/2/3
f 213/4/3 209/4/3 208/4/3
f 213/4/3 210/4/3 209/4/3
f 214/4/3 167/4/3 211/4/3
f 214/4/3 211/4/3 213/4/3
f 215/1/4 216/1/4 221/1/4
f 216/2/4 217/2/4 222/2/4
f 221/1/4 216/1/4 222/1/4
f 217/1/4 218/1/4 223/1/4
f 222/2/4 217/2/4 223/2/4
f 218/2/4 219/2/4 224/2/4
f 223/1/4 218/1/4 224/1/4
f 224/2/4 219/2/4 225/2/4
f 219/4/4 220/4/4 226/4/4
f 225/2/4 219/2/4 226/2/4
f 226/4/4 220/4/4 227/4/4
f 227/4/4 220/4/4 228/4/4
f 224/2/4 225/2/4 229/2/4
f 221/2/4 222/2/4 229/2/4
f 222/2/4 223/2/4 229/2/4
f 223/2/4 224/2/4 229/2/4
f 225/5/4 226/5/4 230/5/4
f 229/2/4 225/2/4 230/2/4
f 226/4/4 227/4/4 231/4/4
f 230/5/4 226/5/4 231/5/4
f 227/6/4 228/6/4 232/6/4
f 231/4/4 227/4/4 232/4/4
f 228/4/4 220/4/4 233/4/4
f 232/6/4 228/6/4 233/6/4
f 233/4/4 220/4/4 234/4/4
f 229/4/4 230/4/4 235/4/4
f 221/2/4 229/2/4 235/2/4
f 230/6/4 231/6/4 236/6/4
f 235/4/4 230/4/4 236/4/4
f 231/4/4 232/4/4 237/4/4
f 236/6/4 231/6/4 237/6/4
f 232/4/4 233/4/4 237/4/4
f 233/3/4 234/3/4 238/3/4
f 237/4/4 233/4/4 238/4/4
f 238/3/4 234/3/4 239/3/4
f 235/2/4 236/2/4 240/2/4
f 221/2/4 235/2/4 240/2/4
f 240/2/4 236/2/4 241/2/4
f 238/4/4 239/4/4 242/4/4
f 241/2/4 236/2/4 242/2/4
f 236/4/4 237/4/4 242/4/4
f 237/4/4 238/4/4 242/4/4
f 242/4/4 239/4/4 243/4/4
f 221/2/4 240/2/4 244/2/4
f 244/2/4 240/2/4 245/2/4
f 240/1/4 241/1/4 246/1/4
f 245/2/4 240/2/4 246/2/4
f 241/2/4 242/2/4 247/2/4
f 246/1/4 241/1/4 247/1/4
f 242/2/4 243/2/4 247/2/4
f 243/4/4 239/4/4 248/4/4
f 247/2/4 243/2/4 248/2/4
f 248/4/4 239/4/4 249/4/4
f 249/4/4 239/4/4 250/4/4
f 244/1/4 245/1/4 251/1/4
f 221/2/4 244/2/4 251/2/4
f 246/2/4 247/2/4 252/2/4
f 251/1/4 245/1/4 252/1/4
f 245/2/4 246/2/4 252/2/4
f 248/2/4 249/2/4 252/2/4
f 247/2/4 248/2/4 252/2/4
f 252/2/4 249/2/4 253/2/4
f 253/2/4 249/2/4 254/2/4
f 254/2/4 249/2/4 255/2/4
f 249/6/4 250/6/4 256/6/4
f 255/2/4 249/2/4 256/2/4
f 250/4/4 239/4/4 257/4/4
f 256/6/4 250/6/4 257/6/4
f 251/2/4 252/2/4 258/2/4
f 252/2/4 253/2/4 258/2/4
f 253/1/4 254/1/4 258/1/4
f 254/2/4 255/2/4 259/2/4
f 258/1/4 254/1/4 259/1/4
f 255/4/4 256/4/4 260/4/4
f 256/5/4 257/5/4 260/5/4
f 257/4/4 239/4/4 261/4/4
f 260/5/4 257/5/4 261/5/4
f 221/2/4 251/2/4 262/2/4
f 251/2/4 258/2/4 262/2/4
f 258/2/4 259/2/4 262/2/4
f 262/2/4 259/2/4 263/2/4
f 259/2/4 255/2/4 264/2/4
f 263/2/4 259/2/4 264/2/4
f 260/4/4 261/4/4 265/4/4
f 264/2/4 255/2/4 265/2/4
f 255/4/4 260/4/4 265/4/4
f 265/4/4 261/4/4 266/4/4
f 262/1/4 263/1/4 267/1/4
f 221/2/4 262/2/4 267/2/4
f 263/2/4 264/2/4 268/2/4
f 267/1/4 263/1/4 268/1/4
f 268/2/4 264/2/4 269/2/4
f 264/4/4 265/4/4 270/4/4
f 269/2/4 264/2/4 270/2/4
f 265/6/4 266/6/4 271/6/4
f 270/4/4 265/4/4 271/4/4
f 266/4/4 261/4/4 272/4/4
f 271/6/4 266/6/4 272/6/4
f 221/2/4 267/2/4 273/2/4
f 268/2/4 269/2/4 273/2/4
f 267/2/4 268/2/4 273/2/4
f 269/4/4 270/4/4 274/4/4
f 273/2/4 269/2/4 274/2/4
f 270/5/4 271/5/4 275/5/4
f 274/4/4 270/4/4 275/4/4
f 271/4/4 272/4/4 276/4/4
f 275/5/4 271/5/4 276/5/4
f 261/4/4 239/4/4 277/4/4
f 276/4/4 272/4/4 277/4/4
f 272/4/4 261/4/4 277/4/4
f 282/2/5 279/2/5 278/2/5
f 282/1/5 280/1/5 279/1/5
f 283/2/5 281/2/5 280/2/5
f 283/1/5 280/1/5 282/1/5
f 284/2/5 281/2/5 283/2/5
f 285/2/5 281/2/5 284/2/5
f 286/2/5 281/2/5 285/2/5
f 287/2/5 283/2/5 282/2/5
f 287/1/5 284/1/5 283/1/5
f 288/2/5 285/2/5 284/2/5
f 288/1/5 284/1/5 287/1/5
f 289/1/5 286/1/5 285/1/5
f 289/2/5 285/2/5 288/2/5
f 290/2/5 281/2/5 286/2/5
f 290/1/5 286/1/5 289/1/5
f 291/2/5 281/2/5 290/2/5
f 292/2/5 281/2/5 291/2/5
f 293/2/5 289/2/5 288/2/5
f 293/2/5 288/2/5 287/2/5
f 293/2/5 290/2/5 289/2/5
f 293/2/5 291/2/5 290/2/5
f 294/1/5 292/1/5 291/1/5
f 294/2/5 291/2/5 293/2/5
f 295/2/5 281/2/5 292/2/5
f 295/1/5 292/1/5 294/1/5
f 296/2/5 282/2/5 278/2/5
f 296/2/5 293/2/5 287/2/5
f 296/2/5 287/2/5 282/2/5
f 297/2/5 293/2/5 296/2/5
f 298/2/5 293/2/5 297/2/5
f 299/2/5 293/2/5 298/2/5
f 300/2/5 293/2/5 299/2/5
f 301/2/5 293/2/5 300/2/5
f 302/1/5 294/1/5 293/1/5
f 302/2/5 293/2/5 301/2/5
f 303/2/5 295/2/5 294/2/5
f 303/1/5 294/1/5 302/1/5
f 304/2/5 296/2/5 278/2/5
f 304/1/5 297/1/5 296/1/5
f 305/2/5 298/2/5 297/2/5
f 305/1/5 297/1/5 304/1/5
f 306/1/5 299/1/5 298/1/5
f 306/2/5 298/2/5 305/2/5
f 307/2/5 300/2/5 299/2/5
f 307/1/5 299/1/5 306/1/5
f 308/1/5 301/1/5 300/1/5
f 308/2/5 300/2/5 307/2/5
f 309/2/5 302/2/5 301/2/5
f 309/1/5 301/1/5 308/1/5
f 309/2/5 303/2/5 302/2/5
f 310/2/5 281/2/5 295/2/5
f 310/2/5 303/2/5 309/2/5
f 310/2/5 309/2/5 308/2/5
f 310/2/5 305/2/5 304/2/5
f 310/2/5 307/2/5 306/2/5
f 310/2/5 306/2/5 305/2/5
f 310/2/5 295/2/5 303/2/5
f 310/2/5 308/2/5 307/2/5
f 311/2/5 281/2/5 310/2/5
f 312/2/5 310/2/5 304/2/5
f 313/2/5 310/2/5 312/2/5
f 314/2/5 310/2/5 313/2/5
f 315/2/5 310/2/5 314/2/5
f 316/2/5 310/2/5 315/2/5
f 317/2/5 310/2/5 316/2/5
f 318/1/5 311/1/5 310/1/5
f 318/2/5 310/2/5 317/2/5
f 319/1/5 311/1/5 318/1/5
f 320/2/5 304/2/5 278/2/5
f 320/2/5 312/2/5 304/2/5
f 321/2/5 312/2/5 320/2/5
f 322/1/5 313/1/5 312/1/5
f 322/2/5 312/2/5 321/2/5
f 323/2/5 314/2/5 313/2/5
f 323/1/5 313/1/5 322/1/5
f 324/1/5 315/1/5 314/1/5
f 324/2/5 314/2/5 323/2/5
f 325/2/5 316/2/5 315/2/5
f 325/1/5 315/1/5 324/1/5
f 326/1/5 317/1/5 316/1/5
f 326/2/5 316/2/5 325/2/5
f 327/2/5 319/2/5 318/2/5
f 327/1/5 317/1/5 326/1/5
f 327/2/5 318/2/5 317/2/5
f 328/2/5 320/2/5 278/2/5
f 329/1/5 321/1/5 320/1/5
f 329/2/5 320/2/5 328/2/5
f 330/2/5 325/2/5 324/2/5
f 330/1/5 321/1/5 329/1/5
f 330/2/5 326/2/5 325/2/5
f 330/2/5 327/2/5 326/2/5
f 330/2/5 322/2/5 321/2/5
f 330/2/5 324/2/5 323/2/5
f 330/2/5 323/2/5 322/2/5
f 331/1/5 329/1/5 328/1/5
f 332/2/5 330/2/5 329/2/5
f 332/1/5 329/1/5 331/1/5
f 333/2/5 327/2/5 330/2/5
f 333/2/5 330/2/5 332/2/5
f 333/2/5 319/2/5 327/2/5
f 335/6/6 336/6/6 338/6/6
f 336/4/6 337/4/6 338/4/6
f 338/4/6 337/4/6 339/4/6
f 339/4/6 337/4/6 340/4/6
f 340/4/6 337/4/6 341/4/6
f 341/4/6 337/4/6 342/4/6
f 342/4/6 337/4/6 343/4/6
f 334/4/6 335/4/6 344/4/6
f 335/6/6 338/6/6 344/6/6
f 338/7/6 339/7/6 345/7/6
f 344/6/6 338/6/6 345/6/6
f 339/4/6 340/4/6 346/4/6
f 345/7/6 339/7/6 346/7/6
f 346/4/6 340/4/6 347/4/6
f 340/3/6 341/3/6 348/3/6
f 347/4/6 340/4/6 348/4/6
f 341/4/6 342/4/6 349/4/6
f 348/3/6 341/3/6 349/3/6
f 342/6/6 343/6/6 350/6/6
f 349/4/6 342/4/6 350/4/6
f 343/4/6 337/4/6 351/4/6
f 350/6/6 343/6/6 351/6/6
f 334/4/6 344/4/6 352/4/6
f 344/4/6 345/4/6 352/4/6
f 345/4/6 346/4/6 352/4/6
f 352/4/6 346/4/6 353/4/6
f 346/6/6 347/6/6 354/6/6
f 353/4/6 346/4/6 354/4/6
f 349/4/6 350/4/6 355/4/6
f 354/6/6 347/6/6 355/6/6
f 348/4/6 349/4/6 355/4/6
f 350/4/6 351/4/6 355/4/6
f 347/4/6 348/4/6 355/4/6
f 355/4/6 351/4/6 356/4/6
f 356/4/6 351/4/6 357/4/6
f 351/4/6 337/4/6 358/4/6
f 357/4/6 351/4/6 358/4/6
f 358/4/6 337/4/6 359/4/6
f 352/3/6 353/3/6 360/3/6
f 353/4/6 354/4/6 361/4/6
f 360/3/6 353/3/6 361/3/6
f 354/4/6 355/4/6 361/4/6
f 355/4/6 356/4/6 361/4/6
f 361/4/6 356/4/6 362/4/6
f 362/4/6 356/4/6 363/4/6
f 356/6/6 357/6/6 364/6/6
f 363/4/6 356/4/6 364/4/6
f 357/4/6 358/4/6 365/4/6
f 364/6/6 357/6/6 365/6/6
f 358/3/6 359/3/6 366/3/6
f 365/4/6 358/4/6 366/4/6
f 366/3/6 359/3/6 367/3/6
f 360/4/6 361/4/6 368/4/6
f 361/4/6 362/4/6 368/4/6
f 368/4/6 362/4/6 369/4/6
f 362/7/6 363/7/6 370/7/6
f 369/4/6 362/4/6 370/4/6
f 364/4/6 365/4/6 371/4/6
f 370/7/6 363/7/6 371/7/6
f 363/4/6 364/4/6 371/4/6
f 366/4/6 367/4/6 371/4/6
f 365/4/6 366/4/6 371/4/6
f 371/4/6 367/4/6 372/4/6
f 372/4/6 367/4/6 373/4/6
f 373/4/6 367/4/6 374/4/6
f 368/6/6 369/6/6 375/6/6
f 360/4/6 368/4/6 375/4/6
f 369/4/6 370/4/6 376/4/6
f 375/6/6 369/6/6 376/6/6
f 370/4/6 371/4/6 376/4/6
f 376/4/6 371/4/6 377/4/6
f 377/4/6 371/4/6 378/4/6
f 371/6/6 372/6/6 379/6/6
f 378/4/6 371/4/6 379/4/6
f 372/4/6 373/4/6 380/4/6
f 379/6/6 372/6/6 380/6/6
f 373/6/6 374/6/6 381/6/6
f 380/4/6 373/4/6 381/4/6
f 374/4/6 367/4/6 382/4/6
f 381/6/6 374/6/6 382/6/6
f 382/4/6 367/4/6 383/4/6
f 377/3/6 378/3/6 384/3/6
f 375/4/6 376/4/6 384/4/6
f 376/4/6 377/4/6 384/4/6
f 380/4/6 381/4/6 385/4/6
f 384/3/6 378/3/6 385/3/6
f 379/4/6 380/4/6 385/4/6
f 381/4/6 382/4/6 385/4/6
f 378/4/6 379/4/6 385/4/6
f 382/7/6 383/7/6 386/7/6
f 385/4/6 382/4/6 386/4/6
f 383/4/6 367/4/6 387/4/6
f 386/7/6 383/7/6 387/7/6
f 387/4/6 367/4/6 388/4/6
f 375/4/6 384/4/6 389/4/6
f 360/4/6 375/4/6 389/4/6
f 384/4/6 385/4/6 389/4/6
f 386/4/6 387/4/6 389/4/6
f 385/4/6 386/4/6 389/4/6
f 389/4/6 387/4/6 390/4/6
f 390/4/6 387/4/6 391/4/6
f 391/4/6 387/4/6 392/4/6
f 392/4/6 387/4/6 393/4/6
f 393/4/6 387/4/6 394/4/6
f 394/4/6 387/4/6 395/4/6
f 387/5/6 388/5/6 396/5/6
f 395/4/6 387/4/6 396/4/6
f 396/5/6 388/5/6 397/5/6
f 389/6/6 390/6/6 398/6/6
f 390/7/6 391/7/6 399/7/6
f 398/6/6 390/6/6 399/6/6
f 391/4/6 392/4/6 400/4/6
f 399/7/6 391/7/6 400/7/6
f 392/6/6 393/6/6 401/6/6
f 400/4/6 392/4/6 401/4/6
f 393/4/6 394/4/6 402/4/6
f 401/6/6 393/6/6 402/6/6
f 394/3/6 395/3/6 403/3/6
f 402/4/6 394/4/6 403/4/6
f 395/4/6 396/4/6 404/4/6
f 403/3/6 395/3/6 404/3/6
f 396/4/6 397/4/6 404/4/6
f 398/4/6 399/4/6 405/4/6
f 399/3/6 400/3/6 406/3/6
f 405/4/6 399/4/6 406/4/6
f 401/4/6 402/4/6 407/4/6
f 406/3/6 400/3/6 407/3/6
f 400/4/6 401/4/6 407/4/6
f 403/4/6 404/4/6 407/4/6
f 402/4/6 403/4/6 407/4/6
f 404/4/6 397/4/6 408/4/6
f 407/4/6 404/4/6 408/4/6
