# MagicaVoxel @ Ephtracy

# group
o 

# material
mtllib Creep Rat.mtl
usemtl palette

# normals
vn -1 0 0
vn 1 0 0
vn 0 0 1
vn 0 0 -1
vn 0 -1 0
vn 0 1 0

# texcoords
vt 0.275391 0.5
vt 0.974609 0.5
vt 0.994141 0.5

# verts
v -0.3 0 0.4
v -0.3 0 0.3
v -0.3 0 0
v -0.3 0 -0.1
v -0.3 0.1 0.4
v -0.3 0.1 0.3
v -0.3 0.1 0
v -0.3 0.1 -0.1
v -0.2 0 0.5
v -0.2 0 0.4
v -0.2 0 0.3
v -0.2 0 0
v -0.2 0 -0.1
v -0.2 0 -0.3
v -0.2 0.1 0.5
v -0.2 0.1 0.4
v -0.2 0.1 0.3
v -0.2 0.1 0
v -0.2 0.1 -0.1
v -0.2 0.1 -0.2
v -0.2 0.1 -0.3
v -0.2 0.2 0.5
v -0.2 0.2 0.4
v -0.2 0.2 -0.2
v -0.1 0 -0.3
v -0.1 0 -0.5
v -0.1 0.1 -0.3
v -0.1 0.1 -0.5
v -0.1 0.2 0.3
v -0.1 0.2 -0.1
v -0.1 0.3 0.3
v -0.1 0.3 -0.1
v 0 0 -0.4
v 0 0 -0.5
v 0 0.1 -0.4
v 0 0.1 -0.5
v 0.1 0 -0.3
v 0.1 0 -0.4
v 0.1 0.1 -0.3
v 0.1 0.1 -0.4
v 0.1 0.2 0.3
v 0.1 0.2 -0.1
v 0.1 0.3 0.3
v 0.1 0.3 -0.1
v 0.2 0 0.5
v 0.2 0 0.3
v 0.2 0 0.2
v 0.2 0 0.1
v 0.2 0 0
v 0.2 0 -0.3
v 0.2 0.1 0.5
v 0.2 0.1 0.4
v 0.2 0.1 0.3
v 0.2 0.1 0.2
v 0.2 0.1 0.1
v 0.2 0.1 0
v 0.2 0.1 -0.2
v 0.2 0.1 -0.3
v 0.2 0.2 0.5
v 0.2 0.2 0.4
v 0.2 0.2 -0.2
v 0.3 0 0.3
v 0.3 0 0.2
v 0.3 0 0.1
v 0.3 0 0
v 0.3 0.1 0.3
v 0.3 0.1 0.2
v 0.3 0.1 0.1
v 0.3 0.1 0
v -0.2 0 0.5
v -0.2 0.1 0.5
v -0.2 0.2 0.5
v -0.1 0.1 0.5
v -0.1 0.2 0.5
v 0.1 0.1 0.5
v 0.1 0.2 0.5
v 0.2 0 0.5
v 0.2 0.1 0.5
v 0.2 0.2 0.5
v -0.3 0 0.4
v -0.3 0.1 0.4
v -0.2 0 0.4
v -0.2 0.1 0.4
v -0.1 0.2 0.3
v -0.1 0.3 0.3
v 0.1 0.2 0.3
v 0.1 0.3 0.3
v 0.2 0 0.3
v 0.2 0.1 0.3
v 0.3 0 0.3
v 0.3 0.1 0.3
v 0.2 0 0.1
v 0.2 0.1 0.1
v 0.3 0 0.1
v 0.3 0.1 0.1
v -0.3 0 0
v -0.3 0.1 0
v -0.2 0 0
v -0.2 0.1 0
v -0.3 0 0.3
v -0.3 0.1 0.3
v -0.2 0 0.3
v -0.2 0.1 0.3
v 0.2 0 0.2
v 0.2 0.1 0.2
v 0.3 0 0.2
v 0.3 0.1 0.2
v 0.2 0 0
v 0.2 0.1 0
v 0.3 0 0
v 0.3 0.1 0
v -0.3 0 -0.1
v -0.3 0.1 -0.1
v -0.2 0 -0.1
v -0.2 0.1 -0.1
v -0.1 0.2 -0.1
v -0.1 0.3 -0.1
v 0.1 0.2 -0.1
v 0.1 0.3 -0.1
v -0.2 0.1 -0.2
v -0.2 0.2 -0.2
v 0.2 0.1 -0.2
v 0.2 0.2 -0.2
v -0.2 0 -0.3
v -0.2 0.1 -0.3
v -0.1 0 -0.3
v -0.1 0.1 -0.3
v 0.1 0 -0.3
v 0.1 0.1 -0.3
v 0.2 0 -0.3
v 0.2 0.1 -0.3
v 0 0 -0.4
v 0 0.1 -0.4
v 0.1 0 -0.4
v 0.1 0.1 -0.4
v -0.1 0 -0.5
v -0.1 0.1 -0.5
v 0 0 -0.5
v 0 0.1 -0.5
v -0.2 0 0.5
v 0.2 0 0.5
v -0.3 0 0.4
v -0.2 0 0.4
v -0.3 0 0.3
v -0.2 0 0.3
v 0.2 0 0.3
v 0.3 0 0.3
v 0.2 0 0.2
v 0.3 0 0.2
v 0.2 0 0.1
v 0.3 0 0.1
v -0.3 0 0
v -0.2 0 0
v 0.2 0 0
v 0.3 0 0
v -0.3 0 -0.1
v -0.2 0 -0.1
v -0.2 0 -0.3
v -0.1 0 -0.3
v 0.1 0 -0.3
v 0.2 0 -0.3
v 0 0 -0.4
v 0.1 0 -0.4
v -0.1 0 -0.5
v 0 0 -0.5
v -0.3 0.1 0.4
v -0.2 0.1 0.4
v -0.3 0.1 0.3
v -0.2 0.1 0.3
v 0.2 0.1 0.3
v 0.3 0.1 0.3
v 0.2 0.1 0.2
v 0.3 0.1 0.2
v 0.2 0.1 0.1
v 0.3 0.1 0.1
v -0.3 0.1 0
v -0.2 0.1 0
v 0.2 0.1 0
v 0.3 0.1 0
v -0.3 0.1 -0.1
v -0.2 0.1 -0.1
v -0.2 0.1 -0.2
v 0.2 0.1 -0.2
v -0.2 0.1 -0.3
v -0.1 0.1 -0.3
v 0.1 0.1 -0.3
v 0.2 0.1 -0.3
v 0 0.1 -0.4
v 0.1 0.1 -0.4
v -0.1 0.1 -0.5
v 0 0.1 -0.5
v -0.2 0.2 0.5
v -0.1 0.2 0.5
v 0.1 0.2 0.5
v 0.2 0.2 0.5
v -0.2 0.2 0.4
v -0.1 0.2 0.4
v 0.1 0.2 0.4
v 0.2 0.2 0.4
v -0.1 0.2 0.3
v 0.1 0.2 0.3
v -0.1 0.2 -0.1
v 0.1 0.2 -0.1
v -0.2 0.2 -0.2
v 0.2 0.2 -0.2
v -0.1 0.3 0.3
v 0.1 0.3 0.3
v -0.1 0.3 -0.1
v 0.1 0.3 -0.1

# faces
f 5/1/1 2/1/1 1/1/1
f 6/1/1 2/1/1 5/1/1
f 7/1/1 4/1/1 3/1/1
f 8/1/1 4/1/1 7/1/1
f 15/2/1 10/2/1 9/2/1
f 16/2/1 10/2/1 15/2/1
f 17/2/1 12/2/1 11/2/1
f 18/2/1 12/2/1 17/2/1
f 19/2/1 14/2/1 13/2/1
f 20/2/1 14/2/1 19/2/1
f 21/2/1 14/2/1 20/2/1
f 22/3/1 16/3/1 15/3/1
f 23/2/1 18/2/1 17/2/1
f 23/3/1 16/3/1 22/3/1
f 23/2/1 17/2/1 16/2/1
f 23/2/1 20/2/1 19/2/1
f 23/2/1 19/2/1 18/2/1
f 24/2/1 20/2/1 23/2/1
f 27/3/1 26/3/1 25/3/1
f 28/3/1 26/3/1 27/3/1
f 31/2/1 30/2/1 29/2/1
f 32/2/1 30/2/1 31/2/1
f 33/3/2 34/3/2 35/3/2
f 35/3/2 34/3/2 36/3/2
f 37/3/2 38/3/2 39/3/2
f 39/3/2 38/3/2 40/3/2
f 41/2/2 42/2/2 43/2/2
f 43/2/2 42/2/2 44/2/2
f 45/2/2 46/2/2 51/2/2
f 51/2/2 46/2/2 52/2/2
f 52/2/2 46/2/2 53/2/2
f 47/2/2 48/2/2 54/2/2
f 54/2/2 48/2/2 55/2/2
f 49/2/2 50/2/2 56/2/2
f 56/2/2 50/2/2 57/2/2
f 57/2/2 50/2/2 58/2/2
f 51/3/2 52/3/2 59/3/2
f 54/2/2 55/2/2 60/2/2
f 59/3/2 52/3/2 60/3/2
f 52/2/2 53/2/2 60/2/2
f 56/2/2 57/2/2 60/2/2
f 55/2/2 56/2/2 60/2/2
f 53/2/2 54/2/2 60/2/2
f 60/2/2 57/2/2 61/2/2
f 62/1/2 63/1/2 66/1/2
f 66/1/2 63/1/2 67/1/2
f 64/1/2 65/1/2 68/1/2
f 68/1/2 65/1/2 69/1/2
f 73/2/3 71/2/3 70/2/3
f 73/3/3 72/3/3 71/3/3
f 74/3/3 72/3/3 73/3/3
f 75/2/3 73/2/3 70/2/3
f 75/2/3 74/2/3 73/2/3
f 76/2/3 74/2/3 75/2/3
f 77/2/3 75/2/3 70/2/3
f 78/3/3 76/3/3 75/3/3
f 78/2/3 75/2/3 77/2/3
f 79/3/3 76/3/3 78/3/3
f 82/1/3 81/1/3 80/1/3
f 83/1/3 81/1/3 82/1/3
f 86/2/3 85/2/3 84/2/3
f 87/2/3 85/2/3 86/2/3
f 90/1/3 89/1/3 88/1/3
f 91/1/3 89/1/3 90/1/3
f 94/1/3 93/1/3 92/1/3
f 95/1/3 93/1/3 94/1/3
f 98/1/3 97/1/3 96/1/3
f 99/1/3 97/1/3 98/1/3
f 100/1/4 101/1/4 102/1/4
f 102/1/4 101/1/4 103/1/4
f 104/1/4 105/1/4 106/1/4
f 106/1/4 105/1/4 107/1/4
f 108/1/4 109/1/4 110/1/4
f 110/1/4 109/1/4 111/1/4
f 112/1/4 113/1/4 114/1/4
f 114/1/4 113/1/4 115/1/4
f 116/2/4 117/2/4 118/2/4
f 118/2/4 117/2/4 119/2/4
f 120/2/4 121/2/4 122/2/4
f 122/2/4 121/2/4 123/2/4
f 124/2/4 125/2/4 126/2/4
f 126/2/4 125/2/4 127/2/4
f 128/2/4 129/2/4 130/2/4
f 130/2/4 129/2/4 131/2/4
f 132/3/4 133/3/4 134/3/4
f 134/3/4 133/3/4 135/3/4
f 136/3/4 137/3/4 138/3/4
f 138/3/4 137/3/4 139/3/4
f 143/2/5 141/2/5 140/2/5
f 144/1/5 143/1/5 142/1/5
f 145/2/5 141/2/5 143/2/5
f 145/1/5 143/1/5 144/1/5
f 146/2/5 141/2/5 145/2/5
f 148/1/5 147/1/5 146/1/5
f 148/2/5 146/2/5 145/2/5
f 149/1/5 147/1/5 148/1/5
f 150/2/5 148/2/5 145/2/5
f 153/2/5 150/2/5 145/2/5
f 154/1/5 151/1/5 150/1/5
f 154/2/5 150/2/5 153/2/5
f 155/1/5 151/1/5 154/1/5
f 156/1/5 153/1/5 152/1/5
f 157/2/5 154/2/5 153/2/5
f 157/1/5 153/1/5 156/1/5
f 158/2/5 154/2/5 157/2/5
f 159/2/5 154/2/5 158/2/5
f 160/2/5 154/2/5 159/2/5
f 161/2/5 154/2/5 160/2/5
f 162/3/5 160/3/5 159/3/5
f 163/3/5 160/3/5 162/3/5
f 164/3/5 162/3/5 159/3/5
f 165/3/5 162/3/5 164/3/5
f 166/1/6 167/1/6 168/1/6
f 168/1/6 167/1/6 169/1/6
f 170/1/6 171/1/6 172/1/6
f 172/1/6 171/1/6 173/1/6
f 174/1/6 175/1/6 178/1/6
f 178/1/6 175/1/6 179/1/6
f 176/1/6 177/1/6 180/1/6
f 180/1/6 177/1/6 181/1/6
f 182/2/6 183/2/6 184/2/6
f 184/2/6 183/2/6 185/2/6
f 185/2/6 183/2/6 186/2/6
f 186/2/6 183/2/6 187/2/6
f 185/3/6 186/3/6 188/3/6
f 188/3/6 186/3/6 189/3/6
f 185/3/6 188/3/6 190/3/6
f 190/3/6 188/3/6 191/3/6
f 192/3/6 193/3/6 196/3/6
f 193/2/6 194/2/6 197/2/6
f 196/3/6 193/3/6 197/3/6
f 194/3/6 195/3/6 198/3/6
f 197/2/6 194/2/6 198/2/6
f 198/3/6 195/3/6 199/3/6
f 196/2/6 197/2/6 200/2/6
f 197/2/6 198/2/6 200/2/6
f 198/2/6 199/2/6 200/2/6
f 200/2/6 199/2/6 201/2/6
f 196/2/6 200/2/6 202/2/6
f 201/2/6 199/2/6 203/2/6
f 196/2/6 202/2/6 204/2/6
f 202/2/6 203/2/6 204/2/6
f 203/2/6 199/2/6 205/2/6
f 204/2/6 203/2/6 205/2/6
f 206/2/6 207/2/6 208/2/6
f 208/2/6 207/2/6 209/2/6
