# MagicaVoxel @ Ephtracy

# group
o 

# material
mtllib Rhino.mtl
usemtl palette

# normals
vn -1 0 0
vn 1 0 0
vn 0 0 1
vn 0 0 -1
vn 0 -1 0
vn 0 1 0

# texcoords
vt 0.958984 0.5
vt 0.974609 0.5
vt 0.978516 0.5
vt 0.982422 0.5
vt 0.990234 0.5

# verts
v -0.3 0 0.4
v -0.3 0 0.2
v -0.3 0 -0.3
v -0.3 0 -0.5
v -0.3 0.1 0.4
v -0.3 0.1 0.2
v -0.3 0.1 -0.3
v -0.3 0.1 -0.5
v -0.3 0.3 0.2
v -0.3 0.3 -0.3
v -0.3 0.5 0.4
v -0.3 0.5 0.3
v -0.3 0.6 0.3
v -0.3 0.6 -0.5
v -0.2 0.2 0.2
v -0.2 0.2 -0.3
v -0.2 0.3 0.2
v -0.2 0.3 -0.3
v -0.2 0.4 0.5
v -0.2 0.4 0.4
v -0.2 0.4 -0.5
v -0.2 0.4 -0.6
v -0.2 0.5 0.4
v -0.2 0.5 0.3
v -0.2 0.5 -0.5
v -0.2 0.5 -0.6
v -0.2 0.6 0.5
v -0.2 0.6 0.3
v -0.2 0.6 -0.4
v -0.2 0.7 0.5
v -0.2 0.7 0.4
v -0.2 0.7 0.2
v -0.2 0.7 -0.4
v -0.2 0.8 0.4
v -0.2 0.8 0.3
v -0.2 0.9 0.3
v -0.2 0.9 0.2
v -0.1 0.3 0.5
v -0.1 0.3 0.4
v -0.1 0.3 -0.5
v -0.1 0.3 -0.6
v -0.1 0.4 0.5
v -0.1 0.4 0.4
v -0.1 0.4 -0.5
v -0.1 0.4 -0.6
v -0.1 0.4 -0.7
v -0.1 0.5 -0.5
v -0.1 0.5 -0.6
v -0.1 0.6 0.6
v -0.1 0.6 0.5
v -0.1 0.6 -0.4
v -0.1 0.6 -0.5
v -0.1 0.6 -0.6
v -0.1 0.7 0.5
v -0.1 0.7 0.4
v -0.1 0.7 0.2
v -0.1 0.7 -0.3
v -0.1 0.7 -0.4
v -0.1 0.7 -0.5
v -0.1 0.7 -0.6
v -0.1 0.7 -0.7
v -0.1 0.8 0.6
v -0.1 0.8 0.4
v -0.1 0.8 0.3
v -0.1 0.8 0.1
v -0.1 0.8 -0.3
v -0.1 0.8 -0.6
v -0.1 0.8 -0.7
v -0.1 0.9 0.5
v -0.1 0.9 0.4
v -0.1 0.9 0.3
v -0.1 0.9 0.2
v -0.1 0.9 0.1
v -0.1 1 0.6
v -0.1 1 0.5
v -0.1 1 0.3
v -0.1 1 0.2
v 0.2 0 0.4
v 0.2 0 0.2
v 0.2 0 -0.3
v 0.2 0 -0.5
v 0.2 0.1 0.4
v 0.2 0.1 0.2
v 0.2 0.1 -0.3
v 0.2 0.1 -0.5
v 0.2 0.2 0.4
v 0.2 0.2 0.2
v 0.2 0.2 -0.3
v 0.2 0.2 -0.4
v 0.2 0.3 -0.4
v 0.2 0.3 -0.5
v -0.2 0 0.4
v -0.2 0 0.2
v -0.2 0 -0.3
v -0.2 0 -0.5
v -0.2 0.1 0.4
v -0.2 0.1 0.2
v -0.2 0.1 -0.3
v -0.2 0.1 -0.5
v -0.2 0.2 0.4
v -0.2 0.2 0.2
v -0.2 0.2 -0.3
v -0.2 0.2 -0.4
v -0.2 0.3 -0.4
v -0.2 0.3 -0.5
v 0 0.5 -0.6
v 0 0.5 -0.7
v 0 0.6 -0.6
v 0 0.7 -0.6
v 0 0.7 -0.7
v 0 0.8 -0.6
v 0 0.8 -0.7
v 0.1 0.3 0.5
v 0.1 0.3 0.4
v 0.1 0.3 -0.5
v 0.1 0.3 -0.6
v 0.1 0.4 0.5
v 0.1 0.4 0.4
v 0.1 0.4 -0.5
v 0.1 0.4 -0.6
v 0.1 0.4 -0.7
v 0.1 0.5 -0.5
v 0.1 0.5 -0.6
v 0.1 0.5 -0.7
v 0.1 0.6 0.6
v 0.1 0.6 0.5
v 0.1 0.6 -0.4
v 0.1 0.6 -0.5
v 0.1 0.6 -0.6
v 0.1 0.7 0.5
v 0.1 0.7 0.4
v 0.1 0.7 0.2
v 0.1 0.7 -0.3
v 0.1 0.7 -0.4
v 0.1 0.7 -0.5
v 0.1 0.8 0.6
v 0.1 0.8 0.4
v 0.1 0.8 0.3
v 0.1 0.8 0.1
v 0.1 0.8 -0.3
v 0.1 0.9 0.5
v 0.1 0.9 0.4
v 0.1 0.9 0.3
v 0.1 0.9 0.2
v 0.1 0.9 0.1
v 0.1 1 0.6
v 0.1 1 0.5
v 0.1 1 0.3
v 0.1 1 0.2
v 0.2 0.2 0.2
v 0.2 0.2 -0.3
v 0.2 0.3 0.2
v 0.2 0.3 -0.3
v 0.2 0.4 0.5
v 0.2 0.4 0.4
v 0.2 0.4 -0.5
v 0.2 0.4 -0.6
v 0.2 0.5 0.4
v 0.2 0.5 0.3
v 0.2 0.5 -0.5
v 0.2 0.5 -0.6
v 0.2 0.6 0.5
v 0.2 0.6 0.3
v 0.2 0.6 -0.4
v 0.2 0.7 0.5
v 0.2 0.7 0.4
v 0.2 0.7 0.2
v 0.2 0.7 -0.4
v 0.2 0.8 0.4
v 0.2 0.8 0.3
v 0.2 0.9 0.3
v 0.2 0.9 0.2
v 0.3 0 0.4
v 0.3 0 0.2
v 0.3 0 -0.3
v 0.3 0 -0.5
v 0.3 0.1 0.4
v 0.3 0.1 0.2
v 0.3 0.1 -0.3
v 0.3 0.1 -0.5
v 0.3 0.3 0.2
v 0.3 0.3 -0.3
v 0.3 0.5 0.4
v 0.3 0.5 0.3
v 0.3 0.6 0.3
v 0.3 0.6 -0.5
v -0.1 0.6 0.6
v -0.1 0.8 0.6
v -0.1 1 0.6
v 0.1 0.6 0.6
v 0.1 0.8 0.6
v 0.1 1 0.6
v -0.2 0.4 0.5
v -0.2 0.6 0.5
v -0.2 0.7 0.5
v -0.1 0.3 0.5
v -0.1 0.4 0.5
v -0.1 0.6 0.5
v -0.1 0.7 0.5
v 0.1 0.3 0.5
v 0.1 0.4 0.5
v 0.1 0.6 0.5
v 0.1 0.7 0.5
v 0.2 0.4 0.5
v 0.2 0.6 0.5
v 0.2 0.7 0.5
v -0.3 0 0.4
v -0.3 0.1 0.4
v -0.3 0.5 0.4
v -0.2 0 0.4
v -0.2 0.1 0.4
v -0.2 0.2 0.4
v -0.2 0.4 0.4
v -0.2 0.5 0.4
v -0.2 0.7 0.4
v -0.2 0.8 0.4
v -0.1 0.3 0.4
v -0.1 0.4 0.4
v -0.1 0.7 0.4
v -0.1 0.8 0.4
v 0.1 0.3 0.4
v 0.1 0.4 0.4
v 0.1 0.7 0.4
v 0.1 0.8 0.4
v 0.2 0 0.4
v 0.2 0.1 0.4
v 0.2 0.2 0.4
v 0.2 0.4 0.4
v 0.2 0.5 0.4
v 0.2 0.7 0.4
v 0.2 0.8 0.4
v 0.3 0 0.4
v 0.3 0.1 0.4
v 0.3 0.5 0.4
v -0.3 0.5 0.3
v -0.3 0.6 0.3
v -0.2 0.5 0.3
v -0.2 0.6 0.3
v -0.2 0.8 0.3
v -0.2 0.9 0.3
v -0.1 0.8 0.3
v -0.1 0.9 0.3
v -0.1 1 0.3
v 0.1 0.8 0.3
v 0.1 0.9 0.3
v 0.1 1 0.3
v 0.2 0.5 0.3
v 0.2 0.6 0.3
v 0.2 0.8 0.3
v 0.2 0.9 0.3
v 0.3 0.5 0.3
v 0.3 0.6 0.3
v -0.3 0 -0.3
v -0.3 0.1 -0.3
v -0.3 0.3 -0.3
v -0.2 0 -0.3
v -0.2 0.1 -0.3
v -0.2 0.2 -0.3
v -0.2 0.3 -0.3
v 0.2 0 -0.3
v 0.2 0.1 -0.3
v 0.2 0.2 -0.3
v 0.2 0.3 -0.3
v 0.3 0 -0.3
v 0.3 0.1 -0.3
v 0.3 0.3 -0.3
v -0.1 0.6 -0.6
v -0.1 0.7 -0.6
v -0.1 0.8 -0.6
v 0 0.6 -0.6
v 0 0.7 -0.6
v 0 0.8 -0.6
v -0.1 0.9 0.5
v -0.1 1 0.5
v 0.1 0.9 0.5
v 0.1 1 0.5
v -0.3 0 0.2
v -0.3 0.1 0.2
v -0.3 0.3 0.2
v -0.2 0 0.2
v -0.2 0.1 0.2
v -0.2 0.2 0.2
v -0.2 0.3 0.2
v -0.2 0.7 0.2
v -0.2 0.9 0.2
v -0.1 0.7 0.2
v -0.1 0.9 0.2
v -0.1 1 0.2
v 0.1 0.7 0.2
v 0.1 0.9 0.2
v 0.1 1 0.2
v 0.2 0 0.2
v 0.2 0.1 0.2
v 0.2 0.2 0.2
v 0.2 0.3 0.2
v 0.2 0.7 0.2
v 0.2 0.9 0.2
v 0.3 0 0.2
v 0.3 0.1 0.2
v 0.3 0.3 0.2
v -0.1 0.8 0.1
v -0.1 0.9 0.1
v 0.1 0.8 0.1
v 0.1 0.9 0.1
v -0.1 0.7 -0.3
v -0.1 0.8 -0.3
v 0.1 0.7 -0.3
v 0.1 0.8 -0.3
v -0.2 0.2 -0.4
v -0.2 0.3 -0.4
v -0.2 0.6 -0.4
v -0.2 0.7 -0.4
v -0.1 0.6 -0.4
v -0.1 0.7 -0.4
v 0.1 0.6 -0.4
v 0.1 0.7 -0.4
v 0.2 0.2 -0.4
v 0.2 0.3 -0.4
v 0.2 0.6 -0.4
v 0.2 0.7 -0.4
v -0.3 0 -0.5
v -0.3 0.1 -0.5
v -0.3 0.6 -0.5
v -0.2 0 -0.5
v -0.2 0.1 -0.5
v -0.2 0.3 -0.5
v -0.2 0.4 -0.5
v -0.2 0.5 -0.5
v -0.1 0.3 -0.5
v -0.1 0.4 -0.5
v -0.1 0.5 -0.5
v -0.1 0.6 -0.5
v -0.1 0.7 -0.5
v 0.1 0.3 -0.5
v 0.1 0.4 -0.5
v 0.1 0.5 -0.5
v 0.1 0.6 -0.5
v 0.1 0.7 -0.5
v 0.2 0 -0.5
v 0.2 0.1 -0.5
v 0.2 0.3 -0.5
v 0.2 0.4 -0.5
v 0.2 0.5 -0.5
v 0.3 0 -0.5
v 0.3 0.1 -0.5
v 0.3 0.6 -0.5
v -0.2 0.4 -0.6
v -0.2 0.5 -0.6
v -0.1 0.3 -0.6
v -0.1 0.4 -0.6
v -0.1 0.5 -0.6
v 0 0.5 -0.6
v 0 0.6 -0.6
v 0.1 0.3 -0.6
v 0.1 0.4 -0.6
v 0.1 0.5 -0.6
v 0.1 0.6 -0.6
v 0.2 0.4 -0.6
v 0.2 0.5 -0.6
v -0.1 0.4 -0.7
v -0.1 0.7 -0.7
v -0.1 0.8 -0.7
v 0 0.5 -0.7
v 0 0.7 -0.7
v 0 0.8 -0.7
v 0.1 0.4 -0.7
v 0.1 0.5 -0.7
v -0.3 0 0.4
v -0.2 0 0.4
v 0.2 0 0.4
v 0.3 0 0.4
v -0.3 0 0.2
v -0.2 0 0.2
v 0.2 0 0.2
v 0.3 0 0.2
v -0.3 0 -0.3
v -0.2 0 -0.3
v 0.2 0 -0.3
v 0.3 0 -0.3
v -0.3 0 -0.5
v -0.2 0 -0.5
v 0.2 0 -0.5
v 0.3 0 -0.5
v -0.2 0.2 0.4
v 0.2 0.2 0.4
v -0.2 0.2 0.2
v 0.2 0.2 0.2
v -0.2 0.2 -0.3
v 0.2 0.2 -0.3
v -0.2 0.2 -0.4
v 0.2 0.2 -0.4
v -0.1 0.3 0.5
v 0.1 0.3 0.5
v -0.1 0.3 0.4
v 0.1 0.3 0.4
v -0.3 0.3 0.2
v -0.2 0.3 0.2
v 0.2 0.3 0.2
v 0.3 0.3 0.2
v -0.3 0.3 -0.3
v -0.2 0.3 -0.3
v 0.2 0.3 -0.3
v 0.3 0.3 -0.3
v -0.2 0.3 -0.4
v 0.2 0.3 -0.4
v -0.2 0.3 -0.5
v -0.1 0.3 -0.5
v 0.1 0.3 -0.5
v 0.2 0.3 -0.5
v -0.1 0.3 -0.6
v 0.1 0.3 -0.6
v -0.2 0.4 0.5
v -0.1 0.4 0.5
v 0.1 0.4 0.5
v 0.2 0.4 0.5
v -0.2 0.4 0.4
v -0.1 0.4 0.4
v 0.1 0.4 0.4
v 0.2 0.4 0.4
v -0.2 0.4 -0.5
v -0.1 0.4 -0.5
v 0.1 0.4 -0.5
v 0.2 0.4 -0.5
v -0.2 0.4 -0.6
v -0.1 0.4 -0.6
v 0.1 0.4 -0.6
v 0.2 0.4 -0.6
v -0.1 0.4 -0.7
v 0.1 0.4 -0.7
v -0.1 0.6 0.6
v 0.1 0.6 0.6
v -0.1 0.6 0.5
v 0.1 0.6 0.5
v -0.3 0.5 0.4
v -0.2 0.5 0.4
v 0.2 0.5 0.4
v 0.3 0.5 0.4
v -0.3 0.5 0.3
v -0.2 0.5 0.3
v 0.2 0.5 0.3
v 0.3 0.5 0.3
v -0.2 0.5 -0.5
v -0.1 0.5 -0.5
v 0.1 0.5 -0.5
v 0.2 0.5 -0.5
v -0.2 0.5 -0.6
v -0.1 0.5 -0.6
v 0 0.5 -0.6
v 0.1 0.5 -0.6
v 0.2 0.5 -0.6
v 0 0.5 -0.7
v 0.1 0.5 -0.7
v -0.3 0.6 0.3
v -0.2 0.6 0.3
v 0.2 0.6 0.3
v 0.3 0.6 0.3
v -0.2 0.6 -0.4
v -0.1 0.6 -0.4
v 0.1 0.6 -0.4
v 0.2 0.6 -0.4
v -0.3 0.6 -0.5
v -0.1 0.6 -0.5
v 0.1 0.6 -0.5
v 0.3 0.6 -0.5
v -0.1 0.6 -0.6
v 0 0.6 -0.6
v 0.1 0.6 -0.6
v -0.2 0.7 0.5
v -0.1 0.7 0.5
v 0.1 0.7 0.5
v 0.2 0.7 0.5
v -0.2 0.7 0.4
v -0.1 0.7 0.4
v 0.1 0.7 0.4
v 0.2 0.7 0.4
v -0.2 0.7 0.2
v -0.1 0.7 0.2
v 0.1 0.7 0.2
v 0.2 0.7 0.2
v -0.1 0.7 -0.3
v 0.1 0.7 -0.3
v -0.2 0.7 -0.4
v -0.1 0.7 -0.4
v 0.1 0.7 -0.4
v 0.2 0.7 -0.4
v -0.1 0.7 -0.5
v 0.1 0.7 -0.5
v -0.2 0.8 0.4
v -0.1 0.8 0.4
v 0.1 0.8 0.4
v 0.2 0.8 0.4
v -0.2 0.8 0.3
v -0.1 0.8 0.3
v 0.1 0.8 0.3
v 0.2 0.8 0.3
v -0.1 0.8 0.1
v 0.1 0.8 0.1
v -0.1 0.8 -0.3
v 0.1 0.8 -0.3
v -0.1 0.8 -0.6
v 0 0.8 -0.6
v -0.1 0.8 -0.7
v 0 0.8 -0.7
v -0.1 0.9 0.5
v 0.1 0.9 0.5
v -0.1 0.9 0.4
v 0.1 0.9 0.4
v -0.2 0.9 0.3
v -0.1 0.9 0.3
v 0.1 0.9 0.3
v 0.2 0.9 0.3
v -0.2 0.9 0.2
v -0.1 0.9 0.2
v 0.1 0.9 0.2
v 0.2 0.9 0.2
v -0.1 0.9 0.1
v 0.1 0.9 0.1
v -0.1 1 0.6
v 0.1 1 0.6
v -0.1 1 0.5
v 0.1 1 0.5
v -0.1 1 0.3
v 0.1 1 0.3
v -0.1 1 0.2
v 0.1 1 0.2

# faces
f 5/4/1 2/4/1 1/4/1
f 6/4/1 2/4/1 5/4/1
f 7/4/1 4/4/1 3/4/1
f 8/4/1 4/4/1 7/4/1
f 9/3/1 6/3/1 5/3/1
f 10/3/1 8/3/1 7/3/1
f 11/3/1 9/3/1 5/3/1
f 11/3/1 10/3/1 9/3/1
f 12/3/1 10/3/1 11/3/1
f 13/3/1 10/3/1 12/3/1
f 14/3/1 8/3/1 10/3/1
f 14/3/1 10/3/1 13/3/1
f 17/3/1 16/3/1 15/3/1
f 18/3/1 16/3/1 17/3/1
f 23/3/1 20/3/1 19/3/1
f 25/3/1 22/3/1 21/3/1
f 26/3/1 22/3/1 25/3/1
f 27/3/1 24/3/1 23/3/1
f 27/3/1 23/3/1 19/3/1
f 28/3/1 24/3/1 27/3/1
f 30/2/1 28/2/1 27/2/1
f 30/2/1 29/2/1 28/2/1
f 31/2/1 29/2/1 30/2/1
f 32/2/1 29/2/1 31/2/1
f 33/2/1 29/2/1 32/2/1
f 34/2/1 32/2/1 31/2/1
f 35/2/1 32/2/1 34/2/1
f 36/2/1 32/2/1 35/2/1
f 37/2/1 32/2/1 36/2/1
f 42/3/1 39/3/1 38/3/1
f 43/3/1 39/3/1 42/3/1
f 44/3/1 41/3/1 40/3/1
f 45/3/1 41/3/1 44/3/1
f 48/3/1 46/3/1 45/3/1
f 52/3/1 48/3/1 47/3/1
f 53/3/1 46/3/1 48/3/1
f 53/3/1 48/3/1 52/3/1
f 54/2/1 50/2/1 49/2/1
f 58/2/1 52/2/1 51/2/1
f 59/2/1 52/2/1 58/2/1
f 60/3/1 46/3/1 53/3/1
f 61/3/1 46/3/1 60/3/1
f 62/2/1 54/2/1 49/2/1
f 62/2/1 55/2/1 54/2/1
f 63/2/1 55/2/1 62/2/1
f 65/2/1 57/2/1 56/2/1
f 66/2/1 57/2/1 65/2/1
f 67/5/1 61/5/1 60/5/1
f 68/5/1 61/5/1 67/5/1
f 69/1/1 63/1/1 62/1/1
f 70/2/1 64/2/1 63/2/1
f 70/1/1 63/1/1 69/1/1
f 71/2/1 64/2/1 70/2/1
f 72/2/1 65/2/1 56/2/1
f 73/2/1 65/2/1 72/2/1
f 74/1/1 69/1/1 62/1/1
f 75/1/1 69/1/1 74/1/1
f 76/2/1 72/2/1 71/2/1
f 77/2/1 72/2/1 76/2/1
f 82/4/1 79/4/1 78/4/1
f 83/4/1 79/4/1 82/4/1
f 84/4/1 81/4/1 80/4/1
f 85/4/1 81/4/1 84/4/1
f 86/3/1 83/3/1 82/3/1
f 87/3/1 83/3/1 86/3/1
f 88/3/1 85/3/1 84/3/1
f 89/3/1 85/3/1 88/3/1
f 90/3/1 85/3/1 89/3/1
f 91/3/1 85/3/1 90/3/1
f 92/4/2 93/4/2 96/4/2
f 96/4/2 93/4/2 97/4/2
f 94/4/2 95/4/2 98/4/2
f 98/4/2 95/4/2 99/4/2
f 96/3/2 97/3/2 100/3/2
f 100/3/2 97/3/2 101/3/2
f 98/3/2 99/3/2 102/3/2
f 102/3/2 99/3/2 103/3/2
f 103/3/2 99/3/2 104/3/2
f 104/3/2 99/3/2 105/3/2
f 106/3/2 107/3/2 108/3/2
f 108/3/2 107/3/2 109/3/2
f 109/3/2 107/3/2 110/3/2
f 109/5/2 110/5/2 111/5/2
f 111/5/2 110/5/2 112/5/2
f 113/3/2 114/3/2 117/3/2
f 117/3/2 114/3/2 118/3/2
f 115/3/2 116/3/2 119/3/2
f 119/3/2 116/3/2 120/3/2
f 120/3/2 121/3/2 123/3/2
f 123/3/2 121/3/2 124/3/2
f 122/3/2 123/3/2 128/3/2
f 128/3/2 123/3/2 129/3/2
f 125/2/2 126/2/2 130/2/2
f 127/2/2 128/2/2 134/2/2
f 134/2/2 128/2/2 135/2/2
f 125/2/2 130/2/2 136/2/2
f 130/2/2 131/2/2 136/2/2
f 136/2/2 131/2/2 137/2/2
f 132/2/2 133/2/2 139/2/2
f 139/2/2 133/2/2 140/2/2
f 136/1/2 137/1/2 141/1/2
f 137/2/2 138/2/2 142/2/2
f 141/1/2 137/1/2 142/1/2
f 142/2/2 138/2/2 143/2/2
f 132/2/2 139/2/2 144/2/2
f 144/2/2 139/2/2 145/2/2
f 136/1/2 141/1/2 146/1/2
f 146/1/2 141/1/2 147/1/2
f 143/2/2 144/2/2 148/2/2
f 148/2/2 144/2/2 149/2/2
f 150/3/2 151/3/2 152/3/2
f 152/3/2 151/3/2 153/3/2
f 154/3/2 155/3/2 158/3/2
f 156/3/2 157/3/2 160/3/2
f 160/3/2 157/3/2 161/3/2
f 158/3/2 159/3/2 162/3/2
f 154/3/2 158/3/2 162/3/2
f 162/3/2 159/3/2 163/3/2
f 162/2/2 163/2/2 165/2/2
f 163/2/2 164/2/2 165/2/2
f 165/2/2 164/2/2 166/2/2
f 166/2/2 164/2/2 167/2/2
f 167/2/2 164/2/2 168/2/2
f 166/2/2 167/2/2 169/2/2
f 169/2/2 167/2/2 170/2/2
f 170/2/2 167/2/2 171/2/2
f 171/2/2 167/2/2 172/2/2
f 173/4/2 174/4/2 177/4/2
f 177/4/2 174/4/2 178/4/2
f 175/4/2 176/4/2 179/4/2
f 179/4/2 176/4/2 180/4/2
f 177/3/2 178/3/2 181/3/2
f 179/3/2 180/3/2 182/3/2
f 177/3/2 181/3/2 183/3/2
f 181/3/2 182/3/2 183/3/2
f 183/3/2 182/3/2 184/3/2
f 184/3/2 182/3/2 185/3/2
f 182/3/2 180/3/2 186/3/2
f 185/3/2 182/3/2 186/3/2
f 190/2/3 188/2/3 187/2/3
f 191/1/3 189/1/3 188/1/3
f 191/2/3 188/2/3 190/2/3
f 192/1/3 189/1/3 191/1/3
f 197/3/3 194/3/3 193/3/3
f 198/2/3 195/2/3 194/2/3
f 198/3/3 194/3/3 197/3/3
f 199/2/3 195/2/3 198/2/3
f 200/3/3 197/3/3 196/3/3
f 200/3/3 198/3/3 197/3/3
f 201/3/3 198/3/3 200/3/3
f 202/3/3 198/3/3 201/3/3
f 204/3/3 202/3/3 201/3/3
f 205/2/3 203/2/3 202/2/3
f 205/3/3 202/3/3 204/3/3
f 206/2/3 203/2/3 205/2/3
f 210/4/3 208/4/3 207/4/3
f 211/3/3 209/3/3 208/3/3
f 211/4/3 208/4/3 210/4/3
f 212/3/3 209/3/3 211/3/3
f 213/3/3 209/3/3 212/3/3
f 214/3/3 209/3/3 213/3/3
f 217/3/3 213/3/3 212/3/3
f 218/3/3 213/3/3 217/3/3
f 219/2/3 216/2/3 215/2/3
f 220/2/3 216/2/3 219/2/3
f 221/3/3 217/3/3 212/3/3
f 227/3/3 221/3/3 212/3/3
f 227/3/3 222/3/3 221/3/3
f 228/3/3 222/3/3 227/3/3
f 230/2/3 224/2/3 223/2/3
f 231/2/3 224/2/3 230/2/3
f 232/4/3 226/4/3 225/4/3
f 233/3/3 229/3/3 228/3/3
f 233/4/3 226/4/3 232/4/3
f 233/3/3 227/3/3 226/3/3
f 233/3/3 228/3/3 227/3/3
f 234/3/3 229/3/3 233/3/3
f 237/3/3 236/3/3 235/3/3
f 238/3/3 236/3/3 237/3/3
f 241/2/3 240/2/3 239/2/3
f 242/2/3 240/2/3 241/2/3
f 245/2/3 243/2/3 242/2/3
f 246/2/3 243/2/3 245/2/3
f 249/2/3 245/2/3 244/2/3
f 250/2/3 245/2/3 249/2/3
f 251/3/3 248/3/3 247/3/3
f 252/3/3 248/3/3 251/3/3
f 256/4/3 254/4/3 253/4/3
f 257/3/3 255/3/3 254/3/3
f 257/4/3 254/4/3 256/4/3
f 258/3/3 255/3/3 257/3/3
f 259/3/3 255/3/3 258/3/3
f 264/4/3 261/4/3 260/4/3
f 265/3/3 263/3/3 262/3/3
f 265/4/3 261/4/3 264/4/3
f 265/3/3 262/3/3 261/3/3
f 266/3/3 263/3/3 265/3/3
f 270/3/3 268/3/3 267/3/3
f 271/5/3 269/5/3 268/5/3
f 271/3/3 268/3/3 270/3/3
f 272/5/3 269/5/3 271/5/3
f 273/1/4 274/1/4 275/1/4
f 275/1/4 274/1/4 276/1/4
f 277/4/4 278/4/4 280/4/4
f 278/3/4 279/3/4 281/3/4
f 280/4/4 278/4/4 281/4/4
f 281/3/4 279/3/4 282/3/4
f 282/3/4 279/3/4 283/3/4
f 284/2/4 285/2/4 286/2/4
f 286/2/4 285/2/4 287/2/4
f 287/2/4 288/2/4 290/2/4
f 290/2/4 288/2/4 291/2/4
f 289/2/4 290/2/4 296/2/4
f 296/2/4 290/2/4 297/2/4
f 292/4/4 293/4/4 298/4/4
f 294/3/4 295/3/4 299/3/4
f 298/4/4 293/4/4 299/4/4
f 293/3/4 294/3/4 299/3/4
f 299/3/4 295/3/4 300/3/4
f 301/2/4 302/2/4 303/2/4
f 303/2/4 302/2/4 304/2/4
f 305/2/4 306/2/4 307/2/4
f 307/2/4 306/2/4 308/2/4
f 311/2/4 312/2/4 313/2/4
f 313/2/4 312/2/4 314/2/4
f 309/3/4 310/3/4 317/3/4
f 317/3/4 310/3/4 318/3/4
f 315/2/4 316/2/4 319/2/4
f 319/2/4 316/2/4 320/2/4
f 321/4/4 322/4/4 324/4/4
f 322/3/4 323/3/4 325/3/4
f 324/4/4 322/4/4 325/4/4
f 325/3/4 323/3/4 326/3/4
f 326/3/4 323/3/4 327/3/4
f 327/3/4 323/3/4 328/3/4
f 326/3/4 327/3/4 329/3/4
f 329/3/4 327/3/4 330/3/4
f 328/3/4 323/3/4 331/3/4
f 331/3/4 323/3/4 332/3/4
f 332/2/4 333/2/4 337/2/4
f 337/2/4 333/2/4 338/2/4
f 334/3/4 335/3/4 341/3/4
f 341/3/4 335/3/4 342/3/4
f 336/3/4 337/3/4 343/3/4
f 339/4/4 340/4/4 344/4/4
f 342/3/4 343/3/4 345/3/4
f 344/4/4 340/4/4 345/4/4
f 341/3/4 342/3/4 345/3/4
f 340/3/4 341/3/4 345/3/4
f 343/3/4 337/3/4 346/3/4
f 345/3/4 343/3/4 346/3/4
f 347/3/4 348/3/4 350/3/4
f 350/3/4 348/3/4 351/3/4
f 349/3/4 350/3/4 354/3/4
f 354/3/4 350/3/4 355/3/4
f 352/3/4 353/3/4 356/3/4
f 356/3/4 353/3/4 357/3/4
f 355/3/4 356/3/4 358/3/4
f 358/3/4 356/3/4 359/3/4
f 360/3/4 361/3/4 363/3/4
f 361/5/4 362/5/4 364/5/4
f 363/3/4 361/3/4 364/3/4
f 364/5/4 362/5/4 365/5/4
f 360/3/4 363/3/4 366/3/4
f 366/3/4 363/3/4 367/3/4
f 372/4/5 369/4/5 368/4/5
f 373/4/5 369/4/5 372/4/5
f 374/4/5 371/4/5 370/4/5
f 375/4/5 371/4/5 374/4/5
f 380/4/5 377/4/5 376/4/5
f 381/4/5 377/4/5 380/4/5
f 382/4/5 379/4/5 378/4/5
f 383/4/5 379/4/5 382/4/5
f 386/3/5 385/3/5 384/3/5
f 387/3/5 385/3/5 386/3/5
f 388/3/5 387/3/5 386/3/5
f 389/3/5 387/3/5 388/3/5
f 390/3/5 389/3/5 388/3/5
f 391/3/5 389/3/5 390/3/5
f 394/3/5 393/3/5 392/3/5
f 395/3/5 393/3/5 394/3/5
f 400/3/5 397/3/5 396/3/5
f 401/3/5 397/3/5 400/3/5
f 402/3/5 399/3/5 398/3/5
f 403/3/5 399/3/5 402/3/5
f 406/3/5 405/3/5 404/3/5
f 407/3/5 405/3/5 406/3/5
f 408/3/5 405/3/5 407/3/5
f 409/3/5 405/3/5 408/3/5
f 410/3/5 408/3/5 407/3/5
f 411/3/5 408/3/5 410/3/5
f 416/3/5 413/3/5 412/3/5
f 417/3/5 413/3/5 416/3/5
f 418/3/5 415/3/5 414/3/5
f 419/3/5 415/3/5 418/3/5
f 424/3/5 421/3/5 420/3/5
f 425/3/5 421/3/5 424/3/5
f 426/3/5 423/3/5 422/3/5
f 427/3/5 423/3/5 426/3/5
f 428/3/5 426/3/5 425/3/5
f 429/3/5 426/3/5 428/3/5
f 432/2/5 431/2/5 430/2/5
f 433/2/5 431/2/5 432/2/5
f 434/3/6 435/3/6 438/3/6
f 438/3/6 435/3/6 439/3/6
f 436/3/6 437/3/6 440/3/6
f 440/3/6 437/3/6 441/3/6
f 442/3/6 443/3/6 446/3/6
f 446/3/6 443/3/6 447/3/6
f 444/3/6 445/3/6 449/3/6
f 449/3/6 445/3/6 450/3/6
f 448/3/6 449/3/6 451/3/6
f 451/3/6 449/3/6 452/3/6
f 453/3/6 454/3/6 457/3/6
f 455/3/6 456/3/6 460/3/6
f 457/3/6 458/3/6 461/3/6
f 453/3/6 457/3/6 461/3/6
f 461/3/6 458/3/6 462/3/6
f 459/3/6 460/3/6 463/3/6
f 460/3/6 456/3/6 464/3/6
f 463/3/6 460/3/6 464/3/6
f 462/3/6 463/3/6 465/3/6
f 465/3/6 463/3/6 466/3/6
f 466/3/6 463/3/6 467/3/6
f 468/2/6 469/2/6 472/2/6
f 472/2/6 469/2/6 473/2/6
f 470/2/6 471/2/6 474/2/6
f 474/2/6 471/2/6 475/2/6
f 476/2/6 477/2/6 480/2/6
f 478/2/6 479/2/6 481/2/6
f 476/2/6 480/2/6 482/2/6
f 480/2/6 481/2/6 482/2/6
f 482/2/6 481/2/6 483/2/6
f 481/2/6 479/2/6 484/2/6
f 483/2/6 481/2/6 484/2/6
f 484/2/6 479/2/6 485/2/6
f 483/2/6 484/2/6 486/2/6
f 486/2/6 484/2/6 487/2/6
f 488/2/6 489/2/6 492/2/6
f 492/2/6 489/2/6 493/2/6
f 490/2/6 491/2/6 494/2/6
f 494/2/6 491/2/6 495/2/6
f 496/2/6 497/2/6 498/2/6
f 498/2/6 497/2/6 499/2/6
f 500/5/6 501/5/6 502/5/6
f 502/5/6 501/5/6 503/5/6
f 504/1/6 505/1/6 506/1/6
f 506/1/6 505/1/6 507/1/6
f 506/2/6 507/2/6 509/2/6
f 509/2/6 507/2/6 510/2/6
f 508/2/6 509/2/6 512/2/6
f 512/2/6 509/2/6 513/2/6
f 510/2/6 511/2/6 514/2/6
f 514/2/6 511/2/6 515/2/6
f 513/2/6 514/2/6 516/2/6
f 516/2/6 514/2/6 517/2/6
f 518/1/6 519/1/6 520/1/6
f 520/1/6 519/1/6 521/1/6
f 522/2/6 523/2/6 524/2/6
f 524/2/6 523/2/6 525/2/6
